<?xml version="1.0" encoding="UTF-8" standalone="no"?>
<svg
   xmlns:dc="http://purl.org/dc/elements/1.1/"
   xmlns:cc="http://creativecommons.org/ns#"
   xmlns:rdf="http://www.w3.org/1999/02/22-rdf-syntax-ns#"
   xmlns:svg="http://www.w3.org/2000/svg"
   xmlns="http://www.w3.org/2000/svg"
   xmlns:sodipodi="http://sodipodi.sourceforge.net/DTD/sodipodi-0.dtd"
   xmlns:inkscape="http://www.inkscape.org/namespaces/inkscape"
   width="210mm"
   height="297mm"
   viewBox="0 0 210 297"
   version="1.1"
   id="svg8"
   inkscape:version="1.0.2 (e86c870, 2021-01-15)"
   sodipodi:docname="lime-logo-circle.svg">
  <defs
     id="defs2" />
  <sodipodi:namedview
     id="base"
     pagecolor="#ffffff"
     bordercolor="#666666"
     borderopacity="1.0"
     inkscape:pageopacity="0.0"
     inkscape:pageshadow="2"
     inkscape:zoom="0.35"
     inkscape:cx="253.15896"
     inkscape:cy="560"
     inkscape:document-units="mm"
     inkscape:current-layer="layer1"
     inkscape:document-rotation="0"
     showgrid="false"
     inkscape:window-width="1254"
     inkscape:window-height="1040"
     inkscape:window-x="78"
     inkscape:window-y="0"
     inkscape:window-maximized="0" />
  <metadata
     id="metadata5">
    <rdf:RDF>
      <cc:Work
         rdf:about="">
        <dc:format>image/svg+xml</dc:format>
        <dc:type
           rdf:resource="http://purl.org/dc/dcmitype/StillImage" />
        <dc:title></dc:title>
      </cc:Work>
    </rdf:RDF>
  </metadata>
  <g
     inkscape:label="Ebene 1"
     inkscape:groupmode="layer"
     id="layer1">
    <circle
       style="fill:#00c6a8;fill-rule:evenodd;stroke:#000000;stroke-width:1.71663;stroke-miterlimit:4;stroke-dasharray:none;fill-opacity:1"
       id="path22"
       r="93.284302"
       cy="140.22917"
       cx="109.99107" />
    <path
       style="fill:#000000;stroke-width:0.476202"
       d="m 81.609494,212.34081 c -2.593609,-1.03096 -2.541517,-0.21146 -2.541517,-39.98142 v -36.72223 l 1.078466,0.1511 1.078465,0.15127 0.122808,36.6209 c 0.08752,26.09773 0.276549,36.80374 0.657839,37.2572 0.437537,0.52037 5.892848,0.63633 29.937535,0.63633 28.57882,0 29.4164,-0.0256 29.89869,-0.91511 0.32972,-0.60812 0.49617,-13.1574 0.49617,-37.4084 v -36.49329 l 1.07847,0.1511 1.07847,0.15127 0.14138,34.53686 c 0.0778,18.99526 0.004,35.69078 -0.16451,37.10114 -0.23127,1.93872 -0.63681,2.89093 -1.6623,3.90313 l -1.3564,1.33883 -29.3951,-0.03 c -16.167304,-0.0161 -29.869113,-0.21842 -30.448466,-0.44869 z m 35.987416,-17.61767 c -0.43986,-0.84568 -3.89649,-7.44607 -7.6814,-14.66754 -3.78489,-7.22143 -6.88163,-13.23581 -6.88163,-13.36526 0,-0.12946 0.48531,-0.23522 1.07846,-0.23505 1.14668,3.6e-4 0.48148,-1.15523 12.32302,21.40778 4.29383,8.18149 4.37579,8.39767 3.18429,8.39767 -0.89618,0 -1.4367,-0.41089 -2.02274,-1.5376 z m -15.81749,-30.27888 c -0.43987,-0.84569 -3.896498,-7.44606 -7.681399,-14.66752 -3.784901,-7.22146 -6.881639,-13.23583 -6.881639,-13.36529 0,-0.12945 0.485311,-0.2352 1.078465,-0.23502 1.146675,3.3e-4 0.481475,-1.15526 12.323023,21.40777 4.29381,8.18149 4.37579,8.39766 3.18428,8.39766 -0.89617,0 -1.43669,-0.41088 -2.02273,-1.5376 z m 3.17173,-11.70615 c 0,-2.28767 3.56517,-2.87776 8.42443,-1.39437 1.66148,0.50721 2.18115,0.48437 3.47505,-0.1527 1.48821,-0.73281 1.52142,-0.72539 1.52142,0.33996 0,0.76294 -0.42863,1.26434 -1.43127,1.67426 -1.51259,0.61843 -2.67419,0.52699 -6.34335,-0.49932 -1.99311,-0.55751 -2.46391,-0.53803 -3.95438,0.16343 -1.63539,0.76975 -1.6919,0.76538 -1.6919,-0.13125 z m 15.8175,0 c 0,-2.28767 3.56516,-2.87776 8.42442,-1.39437 1.66148,0.50721 2.18115,0.48437 3.47505,-0.1527 1.48822,-0.73281 1.52142,-0.72539 1.52142,0.33996 0,0.76294 -0.42863,1.26434 -1.43126,1.67426 -1.51261,0.61843 -2.67421,0.52699 -6.34336,-0.49932 -1.9931,-0.55751 -2.46391,-0.53803 -3.95437,0.16343 -1.6354,0.76975 -1.6919,0.76538 -1.6919,-0.13125 z M 85.961925,134.16538 c -0.439865,-0.84567 -3.896495,-7.44606 -7.681395,-14.6675 -3.784902,-7.22146 -6.881639,-13.23584 -6.881639,-13.36528 0,-0.12947 0.485309,-0.23523 1.078466,-0.23505 1.146673,3.5e-4 0.481474,-1.15524 12.323022,21.40777 4.293813,8.18148 4.375784,8.39767 3.184285,8.39767 -0.896177,0 -1.436693,-0.41089 -2.022739,-1.53761 z m 42.213675,-2.45127 c -1.30548,-1.96659 -2.62294,-5.89407 -2.92085,-8.70734 -0.50866,-4.80356 2.18765,-12.4387 4.5083,-12.76622 0.5892,-0.0832 1.07126,-0.0556 1.07126,0.0612 0,0.11677 -0.59315,1.46219 -1.31812,2.98983 -1.1984,2.52528 -1.31812,3.27167 -1.31812,8.21829 0,4.94659 0.11971,5.69299 1.31812,8.21826 0.72497,1.52764 1.31812,2.85826 1.31812,2.95693 0,0.0987 -0.42641,0.17938 -0.94757,0.17938 -0.52119,0 -1.29119,-0.5176 -1.71114,-1.15023 z m 28.85577,-1.47895 c 2.62998,-5.67021 2.62998,-11.7806 0,-17.4508 l -1.21948,-2.62917 h 1.19696 c 1.00681,0 1.44042,0.50729 2.72956,3.19347 1.42119,2.96134 1.5326,3.55458 1.5326,8.16111 0,4.6065 -0.11142,5.19977 -1.5326,8.16109 -1.28914,2.68617 -1.72275,3.19348 -2.72956,3.19348 h -1.19696 z m -20.44524,-0.85293 c 0,-0.0937 1.31621,-3.02108 2.92491,-6.50524 2.58243,-5.59311 2.87707,-6.52875 2.51642,-7.99073 -0.29788,-1.20751 -0.82749,-1.84804 -1.9559,-2.36554 -1.96754,-0.90234 -2.12297,-2.36846 -0.25003,-2.35855 2.98852,0.0161 3.41666,0.63676 7.09001,10.28309 l 3.4681,9.10732 h -1.32759 c -1.24107,0 -1.44592,-0.30836 -3.14282,-4.73107 -0.99837,-2.60209 -1.95725,-4.73107 -2.13087,-4.73107 -0.1736,0 -1.30852,2.12898 -2.52204,4.73107 -1.95901,4.20057 -2.34455,4.73107 -3.4383,4.73107 -0.67754,0 -1.23189,-0.0767 -1.23189,-0.17041 z M 70.144434,103.88652 C 69.704567,103.04084 66.24794,96.440454 62.463038,89.218995 58.678136,81.997556 55.581399,75.98317 55.581399,75.853711 c 0,-0.129461 0.485311,-0.23521 1.078466,-0.235031 1.146674,3.57e-4 0.481473,-1.155253 12.323022,21.407777 4.293814,8.181483 4.375784,8.397653 3.184285,8.397653 -0.896174,0 -1.436693,-0.41088 -2.022738,-1.53759 z"
       id="path105" />
  </g>
</svg>
