<?xml version="1.0" encoding="UTF-8" standalone="no"?>
<svg
   xmlns:dc="http://purl.org/dc/elements/1.1/"
   xmlns:cc="http://creativecommons.org/ns#"
   xmlns:rdf="http://www.w3.org/1999/02/22-rdf-syntax-ns#"
   xmlns:svg="http://www.w3.org/2000/svg"
   xmlns="http://www.w3.org/2000/svg"
   xmlns:sodipodi="http://sodipodi.sourceforge.net/DTD/sodipodi-0.dtd"
   xmlns:inkscape="http://www.inkscape.org/namespaces/inkscape"
   width="210mm"
   height="297mm"
   viewBox="0 0 210 297"
   version="1.1"
   id="svg8"
   inkscape:version="1.0.2 (e86c870, 2021-01-15)"
   sodipodi:docname="lime-logo.svg">
  <defs
     id="defs2" />
  <sodipodi:namedview
     id="base"
     pagecolor="#ffffff"
     bordercolor="#666666"
     borderopacity="1.0"
     inkscape:pageopacity="0.0"
     inkscape:pageshadow="2"
     inkscape:zoom="0.35"
     inkscape:cx="400"
     inkscape:cy="560"
     inkscape:document-units="mm"
     inkscape:current-layer="layer1"
     inkscape:document-rotation="0"
     showgrid="false"
     inkscape:window-width="1254"
     inkscape:window-height="1040"
     inkscape:window-x="78"
     inkscape:window-y="0"
     inkscape:window-maximized="0" />
  <metadata
     id="metadata5">
    <rdf:RDF>
      <cc:Work
         rdf:about="">
        <dc:format>image/svg+xml</dc:format>
        <dc:type
           rdf:resource="http://purl.org/dc/dcmitype/StillImage" />
        <dc:title></dc:title>
      </cc:Work>
    </rdf:RDF>
  </metadata>
  <g
     inkscape:label="Ebene 1"
     inkscape:groupmode="layer"
     id="layer1">
    <path
       style="fill:#000000;stroke-width:0.814646"
       d="m 59.286652,262.64942 c -4.436928,-1.76368 -4.347813,-0.36173 -4.347813,-68.39686 v -62.8213 l 1.84495,0.25848 1.844947,0.25879 0.210089,62.64795 c 0.149719,44.64582 0.473097,62.96076 1.125376,63.73651 0.748501,0.8902 10.080991,1.08857 51.214619,1.08857 48.89026,0 50.32311,-0.0437 51.14816,-1.56549 0.56407,-1.04032 0.84882,-22.50857 0.84882,-63.99515 v -62.42966 l 1.84495,0.25848 1.84495,0.25879 0.24188,59.08275 c 0.13305,32.4955 0.007,61.0568 -0.28143,63.46953 -0.39564,3.3166 -1.0894,4.94556 -2.84373,6.67715 l -2.32042,2.29034 -50.28667,-0.0514 c -27.657662,-0.0275 -51.097568,-0.37365 -52.088678,-0.76759 z m 61.564258,-30.13884 c -0.75249,-1.44671 -6.6658,-12.7381 -13.14069,-25.09197 -6.47489,-12.35383 -11.772534,-22.64274 -11.772534,-22.86418 0,-0.22147 0.83023,-0.4024 1.84495,-0.4021 1.96163,6.1e-4 0.82366,-1.97628 21.081194,36.62263 7.3455,13.9962 7.48573,14.36603 5.4474,14.36603 -1.5331,0 -2.45777,-0.70292 -3.46032,-2.63041 z M 93.791667,180.71203 c -0.752484,-1.44674 -6.665798,-12.7381 -13.140689,-25.09197 -6.474891,-12.35386 -11.77253,-22.64274 -11.77253,-22.86421 0,-0.22146 0.830228,-0.40237 1.844947,-0.40207 1.961635,5.8e-4 0.823667,-1.97631 21.081196,36.62263 7.345495,13.9962 7.485725,14.366 5.447405,14.366 -1.5331,0 -2.457775,-0.70289 -3.460329,-2.63038 z m 5.425929,-20.02591 c 0,-3.91356 6.098994,-4.92302 14.411804,-2.38536 2.84232,0.86768 3.73133,0.82862 5.94483,-0.26123 2.54591,-1.25363 2.60272,-1.24094 2.60272,0.58157 0,1.30517 -0.73328,2.16293 -2.4485,2.8642 -2.58762,1.05795 -4.57478,0.90151 -10.85167,-0.85421 -3.40964,-0.95373 -4.21505,-0.92042 -6.76481,0.27959 -2.797704,1.31682 -2.894374,1.30933 -2.894374,-0.22453 z m 27.059244,0 c 0,-3.91356 6.09899,-4.92302 14.41179,-2.38536 2.84233,0.86768 3.73134,0.82862 5.94484,-0.26123 2.54591,-1.25363 2.60272,-1.24094 2.60272,0.58157 0,1.30517 -0.73328,2.16293 -2.4485,2.8642 -2.58763,1.05795 -4.57479,0.90151 -10.85167,-0.85421 -3.40964,-0.95373 -4.21506,-0.92042 -6.76481,0.27959 -2.7977,1.31682 -2.89437,1.30933 -2.89437,-0.22453 z M 66.732428,128.91345 C 65.979942,127.46674 60.066631,116.17535 53.59174,103.82152 47.116848,91.467652 41.81921,81.178746 41.81921,80.957307 c 0,-0.22147 0.830227,-0.402408 1.844949,-0.402102 1.961632,6.12e-4 0.823664,-1.976278 21.081193,36.622635 7.345495,13.99619 7.485724,14.36602 5.447407,14.36602 -1.533103,0 -2.457773,-0.70292 -3.460331,-2.63041 z m 72.215612,-4.19342 c -2.23331,-3.36428 -4.4871,-10.0831 -4.99674,-14.8958 -0.87017,-8.21753 3.74244,-21.279087 7.71243,-21.839368 1.00794,-0.142242 1.83262,-0.09513 1.83262,0.104617 0,0.199751 -1.01472,2.501381 -2.25494,5.114751 -2.05013,4.32003 -2.25493,5.596905 -2.25493,14.05915 0,8.46221 0.20479,9.73909 2.25493,14.05912 1.24022,2.61337 2.25494,4.88967 2.25494,5.05846 0,0.16886 -0.72948,0.30688 -1.62105,0.30688 -0.89158,0 -2.20885,-0.88548 -2.92726,-1.96772 z m 49.36402,-2.53007 c 4.49915,-9.70012 4.49915,-20.15326 0,-29.853377 l -2.08618,-4.497756 h 2.04766 c 1.72237,0 2.46416,0.86783 4.6695,5.463106 2.43126,5.066021 2.62184,6.080896 2.62184,13.961357 0,7.88042 -0.19059,8.89533 -2.62184,13.96132 -2.20534,4.59527 -2.94713,5.46314 -4.6695,5.46314 h -2.04766 z m -34.97599,-1.45913 c 0,-0.16029 2.25166,-5.16819 5.00369,-11.12862 4.41781,-9.56822 4.92186,-11.168824 4.30488,-13.669869 -0.50959,-2.065692 -1.4156,-3.161476 -3.34599,-4.046772 -3.36591,-1.543648 -3.6318,-4.051759 -0.42773,-4.034812 5.11251,0.02753 5.84494,1.08933 12.129,17.591463 l 5.93293,15.58004 h -2.27114 c -2.12311,0 -2.47355,-0.52752 -5.37646,-8.09352 -1.70793,-4.45144 -3.34831,-8.09351 -3.64531,-8.09351 -0.29699,0 -2.23852,3.64207 -4.31451,8.09351 -3.35129,7.18598 -4.01085,8.09352 -5.88195,8.09352 -1.15907,0 -2.10741,-0.13123 -2.10741,-0.29152 z M 39.673189,77.114904 C 38.920703,75.668195 33.007395,64.376803 26.532501,52.022938 20.05761,39.669105 14.759971,29.380198 14.759971,29.158729 c 0,-0.22147 0.830228,-0.402377 1.84495,-0.402071 1.961634,6.11e-4 0.823663,-1.976309 21.081193,36.62263 7.345497,13.996195 7.485723,14.365994 5.447407,14.365994 -1.5331,0 -2.457774,-0.70289 -3.460332,-2.630378 z"
       id="path105" />
  </g>
</svg>
