<?xml version="1.0" encoding="UTF-8" standalone="no"?>
<!-- Created with Inkscape (http://www.inkscape.org/) -->

<svg
   xmlns:dc="http://purl.org/dc/elements/1.1/"
   xmlns:cc="http://creativecommons.org/ns#"
   xmlns:rdf="http://www.w3.org/1999/02/22-rdf-syntax-ns#"
   xmlns:svg="http://www.w3.org/2000/svg"
   xmlns="http://www.w3.org/2000/svg"
   xmlns:sodipodi="http://sodipodi.sourceforge.net/DTD/sodipodi-0.dtd"
   xmlns:inkscape="http://www.inkscape.org/namespaces/inkscape"
   version="1.1"
   id="svg3777"
   width="892"
   height="1280"
   viewBox="0 0 892 1280"
   sodipodi:docname="limo.jpg.svg"
   inkscape:version="0.92.5 (2060ec1f9f, 2020-04-08)"
   inkscape:export-filename="/home/mmolle/Downloads/Telegram Desktop/limo128.png"
   inkscape:export-xdpi="9.6120176"
   inkscape:export-ydpi="9.6120176">
  <metadata
     id="metadata3783">
    <rdf:RDF>
      <cc:Work
         rdf:about="">
        <dc:format>image/svg+xml</dc:format>
        <dc:type
           rdf:resource="http://purl.org/dc/dcmitype/StillImage" />
        <dc:title />
      </cc:Work>
    </rdf:RDF>
  </metadata>
  <defs
     id="defs3781" />
  <sodipodi:namedview
     pagecolor="#ffffff"
     bordercolor="#666666"
     borderopacity="1"
     objecttolerance="10"
     gridtolerance="10"
     guidetolerance="10"
     inkscape:pageopacity="0"
     inkscape:pageshadow="2"
     inkscape:window-width="1280"
     inkscape:window-height="752"
     id="namedview3779"
     showgrid="false"
     inkscape:zoom="0.41640625"
     inkscape:cx="-16.652905"
     inkscape:cy="624.7602"
     inkscape:window-x="0"
     inkscape:window-y="24"
     inkscape:window-maximized="1"
     inkscape:current-layer="svg3777" />
  <path
     style="fill:#000000;stroke-width:1.00147593"
     d="m 886.25351,1219.5766 c 0.0817,-36.6426 0.44212,-323.03458 0.80142,-636.42653 L 887.70807,13.346576 872.66191,12.723762 C 848.70683,11.732178 699.63926,13.01054 654.05309,14.598492 606.60195,16.25141 564.36287,16.393932 544.0308,14.969728 516.08548,13.012242 400.28585,12.14665 287.22558,13.050131 245.59218,13.38283 215.45043,13.098196 189.98867,12.131906 167.35517,11.27295 123.68764,10.731302 77.044253,10.730952 13.677689,10.730477 1,10.502879 1,9.365751 1,8.2435071 7.5099652,7.9809062 37.650837,7.8873196 141.46193,7.564989 174.52357,8.0682135 243.34431,11.018139 c 14.98271,0.642218 31.38718,0.607486 49.36644,-0.104519 40.65585,-1.6100273 115.98599,-1.5763955 189.98597,0.08482 81.0266,1.818959 137.51905,1.899969 193.97519,0.278163 C 731.92468,9.6893678 848.3503,8.6872649 871.02665,9.6037514 l 17.57187,0.7101866 V 648.25926 c 0,509.68714 -0.25078,637.94484 -1.24664,637.94284 -0.98628,0 -1.21567,-13.9191 -1.09837,-66.6255 z m -885.1747758,5.7013 c 0.047855,-1.1716 0.2841729,-1.4098 0.6025363,-0.6076 0.2880918,0.726 0.2526614,1.5933 -0.078733,1.9275 -0.3313946,0.3342 -0.567106,-0.2597 -0.5238033,-1.3199 z M 554.17001,1073.3382 c -1.14755,-1.1571 -0.72626,-2.3465 0.8311,-2.3465 0.82276,0 1.49593,0.6788 1.49593,1.5085 0,1.5705 -1.17949,1.9952 -2.32703,0.838 z M 401.02398,1025.815 c -2.41006,-0.4153 -4.97161,-1.568 -5.69239,-2.562 -1.13193,-1.5611 -2.23848,-1.7151 -8.12184,-1.1305 -6.24263,0.6203 -14.49163,0.015 -46.12986,-3.3795 -5.21092,-0.5593 -12.74863,-1.0246 -16.75051,-1.0342 -5.82545,-0.015 -8.20987,-0.5187 -11.95966,-2.5317 -2.57598,-1.3828 -5.80911,-2.5256 -7.18476,-2.5396 -1.37566,-0.015 -6.76466,-1.1407 -11.97556,-2.5039 -5.2109,-1.3633 -14.18661,-3.3822 -19.94603,-4.4863 -21.29763,-4.0837 -22.22473,-5.0979 -21.29629,-23.29888 0.40481,-7.93563 0.0945,-14.9497 -1.01681,-22.98581 -0.87966,-6.36084 -2.0454,-18.3534 -2.59053,-26.65022 -0.54513,-8.29672 -1.47215,-19.57752 -2.06003,-25.06838 -1.60045,-14.94848 -1.71556,-33.12233 -0.22137,-34.94904 1.89689,-2.31902 -0.12359,-21.99634 -2.43499,-23.71435 -1.50003,-1.115 -1.56046,-1.81113 -0.50324,-5.79705 0.66083,-2.49145 1.20149,-5.62808 1.20149,-6.97032 0,-1.34224 0.49372,-2.74811 1.09715,-3.1241 0.69513,-0.4332 0.8868,-2.57394 0.52312,-5.842 -0.82609,-7.42326 -0.66948,-60.9233 0.29332,-100.19377 0.75612,-30.84084 1.01211,-34.23897 3.02697,-40.18367 3.21024,-9.47151 3.66798,-23.68666 1.56042,-48.45869 -1.55903,-18.32466 -1.61141,-22.7201 -0.46679,-39.16183 0.70915,-10.18622 1.4076,-21.00945 1.55211,-24.05159 0.41398,-8.7156 1.47575,-13.25153 4.07294,-17.40031 4.91045,-7.84388 6.04625,-10.49288 8.71177,-20.31891 2.93618,-10.82364 4.80271,-15.01442 10.52322,-23.6265 6.83762,-10.29387 15.6217,-26.57991 23.0469,-42.72995 11.10451,-24.15261 14.77591,-30.87832 31.2971,-57.33396 12.06536,-19.32045 14.81237,-24.4034 16.39834,-30.34256 1.44437,-5.40896 2.35825,-19.46712 2.04811,-31.506 -0.13535,-5.25461 -0.18432,-10.91148 -0.10874,-12.57084 1.06229,-23.33145 2.0095,-74.64555 1.95613,-105.97223 -0.0637,-37.32645 -0.17475,-39.70635 -1.93738,-41.48379 -1.02846,-1.03708 -1.86993,-2.7423 -1.86993,-3.78935 0,-1.04706 -0.69343,-2.17207 -1.54096,-2.50002 -1.91727,-0.74189 -4.44284,-6.65903 -4.44284,-10.40904 0,-1.56603 1.52571,-5.02968 3.4474,-7.82622 1.89608,-2.75926 4.52538,-6.60076 5.84288,-8.53667 2.47817,-3.64139 10.24163,-8.14237 24.25442,-14.06185 9.30844,-3.93219 20.12046,-4.80308 61.19898,-4.92953 27.62048,-0.085 32.74007,0.15082 42.38531,1.95246 6.0337,1.12703 12.98985,2.68592 15.45819,3.46421 2.46834,0.77831 6.95616,1.85212 9.97304,2.38627 3.01683,0.53414 7.95343,1.86113 10.97027,2.94886 3.01688,1.08774 7.72913,2.56192 10.47169,3.27599 2.74259,0.71405 10.14755,3.51309 16.45546,6.22009 6.30794,2.70699 13.43007,5.54018 15.82693,6.29598 8.52596,2.68845 11.73555,8.6853 8.64302,16.14888 -0.89179,2.15223 -2.87251,5.14657 -4.40159,6.65408 -3.05767,3.01451 -12.82985,9.87126 -14.06842,9.87126 -0.42944,0 -1.08616,1.01824 -1.45936,2.26275 -0.92352,3.07952 -2.75466,126.48516 -2.13763,144.06189 0.73861,21.04163 0.61184,24.69412 -0.96391,27.76686 -0.79146,1.54335 -1.43904,3.73034 -1.43904,4.85997 0,3.8621 19.5566,42.77236 31.83624,63.34213 10.89391,18.24854 16.69537,28.96559 22.54073,41.63961 0.9778,2.12011 2.81604,4.2528 4.08493,4.73931 1.40533,0.5388 3.50182,3.27097 5.36354,6.98999 1.68103,3.35804 4.75073,8.91871 6.82153,12.35709 6.47022,10.7432 14.12267,25.65052 14.14586,27.55666 0.0353,2.94745 3.23524,6.18935 6.44853,6.53391 2.62134,0.28113 3.06182,0.80387 3.65933,4.34233 0.37356,2.21243 0.27961,7.1905 -0.2088,11.0623 -1.91709,15.19398 -3.14624,40.6274 -3.42635,70.89955 -0.16117,17.4232 -0.99605,40.95585 -1.85511,52.29477 -0.85907,11.33886 -1.7913,33.28756 -2.07152,48.77488 -0.28048,15.48722 -1.21524,35.62569 -2.07771,44.75217 -0.86692,9.17333 -1.74354,30.53445 -1.96044,47.76921 -0.21578,17.14665 -0.91132,35.24865 -1.54563,40.22667 -0.63431,4.97807 -1.37963,25.34283 -1.65615,45.25506 -0.27659,19.91224 -0.57265,38.91939 -0.65806,42.23803 -0.0852,3.3187 0.22104,13.61424 0.68131,22.87895 l 0.83674,16.84493 h -2.43265 c -3.56682,0 -37.34485,11.62983 -39.19408,13.49463 -0.86741,0.8747 -2.22426,1.5904 -3.01513,1.5904 -0.79093,0 -6.25645,1.5952 -12.14573,3.545 -5.88921,1.9498 -15.19554,4.4491 -20.68071,5.5542 -5.48514,1.105 -10.87059,2.4172 -11.96762,2.916 -3.05644,1.3895 -28.18554,4.3536 -30.95903,3.6516 -1.9965,-0.5051 -2.45057,-0.2439 -2.45057,1.4103 0,1.8036 -0.64667,2.0306 -5.7844,2.0306 -3.18134,0 -6.3,0.52 -6.93031,1.1556 -1.24773,1.2581 -5.75512,1.4526 -51.1126,2.2059 -16.18124,0.2689 -31.39228,0.149 -33.80231,-0.2664 z m 11.61229,-1.7772 c -0.95989,-0.2531 -2.53066,-0.2531 -3.49056,0 -0.9599,0.2531 -0.17451,0.4597 1.74528,0.4597 1.91982,0 2.70518,-0.2071 1.74528,-0.4597 z m 13.94146,0.086 c -0.33138,-0.3342 -1.19157,-0.37 -1.91151,-0.08 -0.79557,0.321 -0.55926,0.5594 0.60256,0.6077 1.05131,0.041 1.64033,-0.194 1.30895,-0.5283 z m 43.15407,-4.4014 c 11.79308,-1.0196 22.85612,-1.6225 24.58451,-1.3398 2.25507,0.3688 3.68041,-0.03 5.04721,-1.4068 1.32891,-1.34 4.59945,-2.2997 10.81968,-3.1748 4.90326,-0.6897 10.93455,-1.6742 13.40289,-2.1876 2.46834,-0.5134 8.97573,-1.8669 14.46086,-3.0077 5.48514,-1.141 11.03077,-2.7733 12.32355,-3.6275 1.55816,-1.0295 2.68487,-1.2159 3.34223,-0.553 1.00324,1.0116 8.43847,-1.4124 34.19931,-11.14966 6.58218,-2.48793 15.89702,-5.79952 20.69958,-7.35915 l 8.73196,-2.83549 -0.63916,-9.59622 c -0.35166,-5.27789 -1.05536,-10.12926 -1.56403,-10.7808 -0.57073,-0.73097 -0.49607,-6.50838 0.19482,-15.08507 1.1707,-14.53166 0.2547,-64.82253 -1.04372,-57.29063 -0.68053,3.94818 -3.17729,6.82215 -3.7343,4.29843 -0.16121,-0.72955 0.87109,-11.46572 2.29354,-23.8581 1.42242,-12.39244 2.85605,-29.92607 3.18579,-38.9636 0.45352,-12.42887 0.92733,-16.55875 1.94503,-16.95252 1.62446,-0.62859 1.81798,-6.33947 0.21494,-6.33947 -1.74209,0 -0.58838,-19.043 1.34261,-22.1622 1.89835,-3.06636 3.69587,-32.39189 3.57311,-58.2912 -0.0458,-9.67954 0.42156,-23.48238 1.03879,-30.67288 3.29753,-38.41191 3.4292,-40.94248 2.17116,-41.72655 -0.80513,-0.50153 -1.03143,-2.10727 -0.65695,-4.6611 0.31413,-2.14263 0.81707,-10.23138 1.11746,-17.97504 0.30009,-7.74366 1.01146,-26.0719 1.58027,-40.72956 0.56875,-14.65756 1.39521,-30.27053 1.83656,-34.6955 0.44141,-4.42496 0.71286,-8.16444 0.60332,-8.30998 -0.41109,-0.54631 -7.512,2.85581 -13.13047,6.29105 -6.13833,3.75305 -17.77836,7.90368 -26.53427,9.46162 -2.8713,0.51084 -12.40113,2.36597 -21.17738,4.12246 -8.77625,1.75649 -18.42513,3.61404 -21.44201,4.12794 -3.01681,0.51384 -8.17787,1.58742 -11.46893,2.38571 -3.2911,0.79818 -10.67757,1.92671 -16.41437,2.50782 -5.73685,0.58106 -14.71253,2.15806 -19.94606,3.50456 -8.67311,2.23143 -27.03156,5.43364 -40.93047,7.13939 -3.01683,0.37041 -5.9339,1.02379 -6.48244,1.45241 -0.5485,0.42857 -12.44134,1.10064 -26.42852,1.49341 -20.12125,0.565 -28.24233,0.38983 -38.89475,-0.83971 -7.40497,-0.85467 -17.72704,-1.8334 -22.93794,-2.17501 -5.2109,-0.34187 -13.73784,-1.2936 -18.94875,-2.11552 -16.95719,-2.67458 -25.35746,-3.52214 -29.42039,-2.96851 -2.19407,0.29903 -6.68191,0.11738 -9.97301,-0.40357 -3.2911,-0.52073 -12.04241,-1.6549 -19.44738,-2.52024 -21.75568,-2.54241 -27.33283,-3.30949 -28.99548,-3.98798 -2.52798,-1.03163 -4.44987,28.5642 -3.30759,50.93473 0.48843,9.56574 0.8515,26.44325 0.80682,37.50561 -0.0684,16.93595 -0.45129,21.94028 -2.42379,31.67851 -2.18426,10.78365 -2.38095,14.58934 -2.91067,56.31737 -0.73851,58.1754 -0.48034,92.21782 0.85024,112.11474 0.59121,8.84051 1.0749,23.86105 1.0749,33.37915 0,11.99624 0.35326,17.52563 1.1514,18.0231 0.71337,0.44442 0.88068,0.27598 0.43979,-0.44341 -0.39139,-0.63859 -0.28868,-1.16101 0.22822,-1.16101 1.40172,0 2.13857,3.74606 2.17592,11.06231 0.0184,3.59525 0.45253,9.47841 0.96485,13.07366 2.02416,14.20478 3.16993,29.45466 2.25831,30.05745 -1.21161,0.80119 -3.0602,18.97109 -2.2624,22.23726 0.41227,1.68785 2.07517,3.23043 5.05943,4.69357 4.94036,2.42224 21.15958,5.94202 22.76624,4.94082 0.5653,-0.3526 2.72634,0.2775 4.80229,1.3993 2.07593,1.122 4.76093,2.04 5.96665,2.04 1.20572,0 6.51504,1.4035 11.7985,3.119 8.87665,2.882 9.69944,2.9904 10.83224,1.4282 1.14212,-1.575 1.64005,-1.5499 7.28287,0.3668 10.61536,3.606 15.32825,4.2621 37.23616,5.1834 35.51576,1.4933 59.40892,2.8731 61.10322,3.5289 3.04154,1.1769 0.63396,3.361 -4.09479,3.7147 -2.55755,0.1913 2.75487,0.1837 11.80539,-0.015 9.05052,-0.201 26.1044,-1.1997 37.8975,-2.2193 z m -71.80574,-57.82692 c -14.81474,-1.76496 -26.89297,-5.16167 -44.86112,-12.61604 -4.47249,-1.8555 -7.60251,-2.67179 -7.81221,-2.03741 -0.66068,1.99873 -2.69546,1.01963 -11.93513,-5.74241 -5.09203,-3.72663 -11.72668,-8.55522 -14.7437,-10.73017 -8.15195,-5.87679 -23.29293,-21.15746 -29.46352,-29.73537 -6.40816,-8.90814 -10.86051,-15.77256 -10.86051,-16.74413 0,-0.38319 -0.67537,-1.44925 -1.50082,-2.36892 -1.86583,-2.0791 -10.81256,-27.86897 -13.42978,-38.71278 -4.94983,-20.50851 -6.53211,-45.11137 -3.97768,-61.8486 0.54872,-3.59525 1.22085,-8.9301 1.49361,-11.85534 0.72032,-7.7246 9.96265,-34.99499 15.58009,-45.9705 7.69572,-15.03623 17.41079,-29.63251 26.2927,-39.50323 7.01411,-7.79498 25.59308,-23.9918 33.21015,-28.95208 3.11321,-2.0273 7.45552,-4.90785 9.64959,-6.40132 4.53943,-3.08967 11.60061,-6.50059 22.43929,-10.83923 11.23804,-4.4985 17.36138,-6.23341 29.23071,-8.28193 6.76587,-1.16774 11.50481,-2.52146 12.72527,-3.63525 1.55941,-1.42304 2.38731,-1.55605 4.17893,-0.67101 1.22882,0.60706 4.92693,1.37829 8.21803,1.7139 21.62779,2.20548 39.91521,5.69873 53.85429,10.28702 8.95806,2.94877 33.73694,15.18066 42.94417,21.19905 8.29098,5.41948 28.14748,23.06144 34.63347,30.77089 13.52257,16.07333 25.86307,40.28294 31.07523,60.96336 0.90611,3.59525 2.0436,7.89452 2.52769,9.55384 2.35132,8.05932 3.41305,20.37839 3.25206,37.73305 -0.27524,29.69958 -4.31286,46.61947 -17.50219,73.3478 -8.21236,16.64244 -9.70309,19.45935 -10.6685,20.15873 -0.38183,0.2765 -1.24479,1.55689 -1.91795,2.84513 -2.42915,4.64893 -6.16773,8.67017 -18.14078,19.51219 -3.50079,3.17016 -7.93583,7.25235 -9.85563,9.07148 -3.7372,3.54135 -15.44823,12.44445 -23.1667,17.61206 -2.59411,1.73675 -8.42831,4.81837 -12.9649,6.848 -31.12988,13.92711 -64.72786,19.05331 -98.50416,15.02922 z m 17.20348,-1.18733 c -0.68566,-0.27913 -1.80762,-0.27913 -2.49327,0 -0.68565,0.27909 -0.12467,0.50716 1.24663,0.50716 1.37128,0 1.93226,-0.22807 1.24664,-0.50716 z m 39.13407,-5.3391 c 27.44655,-5.57229 57.33774,-20.1441 75.23642,-36.67748 11.22372,-10.36755 22.10964,-21.82337 27.29116,-28.71979 3.11684,-4.14841 6.34524,-8.42657 7.17424,-9.507 0.82906,-1.08047 1.50732,-2.72211 1.50732,-3.64815 0,-0.92599 0.62919,-2.21011 1.39812,-2.85365 0.76893,-0.64354 1.69431,-2.36029 2.0564,-3.81506 0.36218,-1.45473 1.52809,-3.75995 2.59115,-5.12272 1.063,-1.36271 1.93276,-3.23132 1.93276,-4.15231 0,-0.92098 0.39537,-2.10452 0.87878,-2.62994 1.16971,-1.27176 7.36238,-20.15326 9.7136,-29.61688 1.57913,-6.35611 1.8739,-11.41819 1.8739,-32.1814 0,-22.25363 -0.22152,-25.56375 -2.28994,-34.19271 -2.44107,-10.18448 -5.60734,-20.70752 -7.71621,-25.64454 -0.70883,-1.65937 -2.54615,-5.95854 -4.08293,-9.55384 -1.53685,-3.59525 -4.02265,-8.57332 -5.52409,-11.06231 -1.50146,-2.48903 -3.42885,-5.88321 -4.28316,-7.54253 -4.91869,-9.55395 -15.93389,-21.67483 -31.95259,-35.15991 -10.55083,-8.88209 -19.21003,-14.48117 -34.66593,-22.41532 -7.43708,-3.81775 -8.58952,-4.3177 -19.82924,-8.60228 -23.66376,-9.02047 -65.77443,-12.01503 -89.04162,-6.33168 -5.99262,1.46378 -11.37806,3.04462 -11.96762,3.51298 -0.58958,0.46842 -2.86708,1.43004 -5.06115,2.13706 -15.59737,5.02639 -38.43972,20.58098 -56.34755,38.36996 -20.64107,20.50419 -32.30951,39.82063 -42.96532,71.12694 -8.80272,25.86193 -10.22734,58.87883 -3.73624,86.59053 2.18248,9.31734 9.03565,31.16945 11.89271,37.92096 6.84734,16.18119 34.08518,47.90886 46.90086,54.63189 1.30287,0.68344 5.28597,3.39144 8.85132,6.01765 5.15666,3.79848 7.29833,4.77747 10.47167,4.78711 2.5497,0.01 6.52905,1.29118 11.02758,3.55693 3.87111,1.94977 9.70534,4.29169 12.96493,5.20425 3.25961,0.91256 9.29244,2.59115 13.40631,3.73011 18.36413,5.08445 52.09351,5.94443 72.29436,1.84313 z m -88.35302,-84.78851 c -4.87277,-3.29985 -4.93673,-6.84836 -0.26873,-14.90869 3.93258,-6.79036 16.10247,-19.4793 22.80986,-23.78262 4.9101,-3.1502 14.79966,-13.02497 15.09809,-15.07549 0.19342,-1.32871 3.82951,-5.94522 6.93425,-8.80393 2.19034,-2.01678 9.25988,-15.61581 11.33534,-21.80484 1.17192,-3.49466 2.57306,-7.16345 3.1137,-8.15297 0.76816,-1.40608 -0.66442,-5.17825 -6.55639,-17.26392 -7.22633,-14.82268 -7.89423,-15.80346 -16.08689,-23.62355 -7.87612,-7.51796 -14.50087,-12.12231 -17.44166,-12.12231 -0.65439,0 -4.15035,-1.41419 -7.76882,-3.14268 -11.11129,-5.30779 -14.20401,-6.1455 -23.40653,-6.34036 -7.38138,-0.15612 -9.07687,-0.50158 -10.22236,-2.08121 -3.06245,-4.22326 -0.45632,-11.64557 4.72908,-13.46838 5.19942,-1.82771 13.6963,-1.30061 21.78257,1.35129 4.13562,1.35629 10.07855,3.18279 13.20653,4.05903 3.85003,1.07842 8.5215,3.69142 14.46088,8.08854 4.82552,3.57246 10.56878,7.45758 12.76285,8.63354 2.19407,1.1759 7.64775,5.9 12.11927,10.49799 6.57678,6.76267 9.60393,11.01446 15.84424,22.25436 4.24279,7.64197 8.5096,15.06528 9.48178,16.49627 0.97221,1.43093 2.66194,5.50391 3.75504,9.05095 1.09306,3.54708 3.34112,9.16459 4.99571,12.48328 1.65449,3.3187 4.14788,8.52301 5.54081,11.56515 1.39293,3.0422 4.346,7.54896 6.56241,10.0152 2.21637,2.46614 4.29833,5.40775 4.62656,6.53681 0.53662,1.84587 8.4055,10.49583 21.56663,23.70745 2.58962,2.59947 7.19993,5.99755 10.24517,7.55123 6.59999,3.36728 7.41065,4.24347 8.14427,8.80229 0.52932,3.28922 0.24597,3.73253 -4.87607,7.63223 -2.99092,2.27707 -5.87852,4.14025 -6.41693,4.14025 -1.17069,0 -12.17146,-5.82347 -14.29803,-7.56891 -0.82276,-0.67538 -3.1499,-1.76307 -5.1714,-2.41724 -2.02154,-0.65411 -3.81664,-1.51157 -3.98921,-1.9054 -0.17258,-0.39393 -1.48754,-1.63016 -2.92225,-2.74743 -7.76052,-6.04344 -16.73201,-19.1919 -24.32104,-35.64447 -1.65832,-3.59526 -5.33471,-10.83608 -8.1697,-16.09065 -2.83495,-5.25463 -5.79905,-10.80818 -6.58682,-12.34122 l -1.43237,-2.78728 -2.23631,5.30147 c -4.04568,9.59079 -15.41099,32.38379 -17.96928,36.0372 -1.37983,1.97046 -4.97465,5.77652 -7.98849,8.458 -3.01384,2.68142 -5.71769,5.23426 -6.00857,5.67298 -0.29085,0.43884 -2.38715,2.06321 -4.65843,3.60999 -2.27129,1.54679 -5.09519,4.05693 -6.27531,5.57798 -1.18017,1.52109 -2.6496,2.76553 -3.2654,2.76553 -0.61583,0 -2.34978,1.18844 -3.85323,2.64095 -1.50346,1.45241 -3.7631,3.15842 -5.02142,3.79106 -1.25832,0.63259 -2.81712,2.22064 -3.46398,3.52898 -1.10497,2.23496 -3.09338,4.06819 -4.4502,4.10299 -0.33028,0.01 -2.12543,-1.01726 -3.98922,-2.27944 z m 137.72947,-2.23064 c 1.06669,-1.29608 0.70586,-1.50852 -2.56178,-1.50852 -3.55823,0 -3.67856,0.0954 -1.86737,1.47651 2.45629,1.87345 2.91088,1.87672 4.42915,0.0305 z m -131.84375,-1.70733 c 0.28137,-1.47304 -0.0573,-1.53984 -2.70282,-0.53295 -2.04228,0.77734 -2.6288,1.40925 -1.80615,1.94588 1.84251,1.20186 4.14756,0.47963 4.50897,-1.41293 z m 137.95951,-5.98812 c -0.52106,-1.38187 -2.22247,-3.33275 -3.78087,-4.33522 l -2.83352,-1.82265 2.87052,3.09367 c 2.14259,2.30918 2.74219,3.7708 2.36438,5.76357 -0.43724,2.30671 -0.31323,2.47562 0.91037,1.2416 1.04233,-1.0511 1.16624,-2.09194 0.46912,-3.94097 z m -132.52376,-2.20332 c 1.50842,-1.12459 2.74258,-2.72232 2.74258,-3.55067 0,-1.77423 3.85853,-6.16103 5.41912,-6.16103 0.59521,0 1.64276,-0.90509 2.32785,-2.01136 0.68512,-1.10627 2.11294,-2.01141 3.17295,-2.01141 1.06001,0 2.17467,-0.40357 2.47707,-0.89693 0.31175,-0.50868 -1.27327,-0.48421 -3.66104,0.0572 -4.07242,0.92267 -10.73325,5.12914 -10.73325,6.77831 0,0.44441 -1.21971,2.11821 -2.71048,3.7201 -1.49073,1.60179 -4.06274,4.44892 -5.71556,6.32684 l -3.00512,3.41434 3.47166,-1.81029 c 1.90941,-0.99562 4.7058,-2.73032 6.21422,-3.8549 z m 128.4026,4.04003 c 0,-1.71164 -3.86197,-5.28431 -6.62257,-6.1265 -1.1741,-0.3582 -7.77207,-6.51965 -14.66216,-13.69204 -6.8901,-7.17256 -12.99786,-13.04093 -13.57278,-13.04093 -0.57497,0 -1.04535,-0.51884 -1.04535,-1.15301 0,-0.63411 -1.68296,-3.6312 -3.73989,-6.66013 -2.05694,-3.02893 -4.51529,-6.69614 -5.4631,-8.14939 -2.57717,-3.95176 -11.15212,-21.84432 -14.03826,-29.29248 -10.92293,-28.18805 -24.74113,-47.80758 -40.81056,-57.94421 -2.34484,-1.47915 -6.28289,-4.3727 -8.75123,-6.43011 -6.31134,-5.26074 -11.3723,-7.62065 -20.35544,-9.49179 -4.28441,-0.89235 -9.06748,-2.2887 -10.62907,-3.10304 -2.96054,-1.54379 -12.85332,-2.24022 -14.77854,-1.04037 -2.20323,1.37303 -1.02506,2.21301 3.43026,2.44556 5.7992,0.30261 16.23617,3.54688 23.82295,7.405 3.25826,1.65685 8.02712,3.64225 10.5975,4.41201 3.44292,1.03095 7.2032,3.6969 14.28127,10.12469 10.7135,9.72939 13.20581,13.21926 20.3568,28.50483 2.72327,5.82105 6.29714,12.6093 7.94195,15.08502 4.22045,6.35231 17.9125,31.98906 26.03669,48.75062 7.73077,15.94989 9.52047,18.76038 16.39798,25.75076 6.44537,6.55117 11.27408,9.67164 21.13186,13.65598 4.1666,1.68407 10.47169,1.67775 10.47169,-0.01 z m -135.2525,-6.26152 c 0.34058,-0.89498 0.17339,-1.29865 -0.39196,-0.94625 -0.54223,0.33772 -0.9859,1.04021 -0.9859,1.56068 0,1.44657 0.71485,1.1278 1.37786,-0.61443 z m 15.07248,-0.0847 c 0.90966,-0.35203 2.06027,-1.71775 2.55693,-3.03498 0.49668,-1.31729 1.92084,-2.81007 3.16484,-3.31723 1.24399,-0.50715 3.60817,-2.12131 5.2537,-3.58683 l 2.99191,-2.66463 -3.98919,2.26212 c -2.19407,1.24423 -4.7777,2.9394 -5.74135,3.76701 -0.96369,0.82766 -2.75487,2.00893 -3.98039,2.62504 -1.22552,0.61607 -2.37731,1.90077 -2.5595,2.85487 -0.36571,1.91482 -0.11923,2.03193 2.30305,1.09463 z m -9.56659,-6.48217 c 2.95131,-4.02529 9.85768,-8.96873 12.53016,-8.96873 2.09651,0 4.86694,-2.79159 14.24981,-14.35853 2.14359,-2.64263 4.94584,-6.71556 6.22724,-9.05105 2.28512,-4.16489 2.28835,-4.20958 0.16815,-2.33055 -1.18892,1.05374 -2.16164,2.49909 -2.16164,3.212 0,1.6409 -14.75211,16.49411 -16.38185,16.49411 -1.23926,0 -19.52101,17.23192 -19.52101,18.39998 0,1.39535 2.80365,-0.55284 4.88914,-3.39723 z m 28.81531,-14.75135 c 6.19377,-6.06487 7.69106,-8.36067 14.05044,-21.54388 9.57909,-19.85781 13.22357,-28.99087 11.56853,-28.99087 -0.71183,0 -2.08035,2.52015 -3.04114,5.60035 -0.96079,3.0802 -3.0221,7.37552 -4.58067,9.54515 -1.55859,2.16959 -2.83574,4.28806 -2.83807,4.70773 -0.003,0.41941 -1.36222,2.79944 -3.02194,5.28847 -1.65968,2.48899 -3.85339,6.33568 -4.87487,8.54811 -1.02146,2.21254 -5.50523,8.43505 -9.96393,13.82795 -6.26321,7.57549 -7.66602,9.80524 -6.16878,9.80524 1.06584,0 5.05754,-3.05473 8.87043,-6.78825 z m 70.01496,-6.66509 c 0,-0.2087 -0.78536,-1.00078 -1.74531,-1.75991 -1.58174,-1.25096 -1.61705,-1.21538 -0.37659,0.37962 1.30285,1.67522 2.12185,2.20796 2.12185,1.38024 z m -39.16646,-41.8224 c -0.6372,-0.84946 -1.2285,-1.67554 -1.31403,-1.83571 -0.0856,-0.16023 -0.3696,0.53474 -0.63164,1.54436 -0.33028,1.27371 0.0721,1.83576 1.31407,1.83576 1.44776,0 1.56854,-0.29545 0.6316,-1.54441 z m -4.26058,-6.33063 c 0.4427,0.41994 0.20716,-0.22602 -0.52341,-1.43493 -1.21514,-2.0112 -1.42461,-2.05405 -2.45847,-0.50263 -0.62159,0.93262 -1.45403,2.59015 -1.84987,3.68331 -0.66196,1.82813 -0.52918,1.80718 1.65353,-0.26071 1.30532,-1.23649 2.7355,-1.90466 3.17822,-1.48483 z m -28.3787,-46.3797 c 0,-0.20871 -0.78538,-1.00084 -1.74528,-1.75996 -1.58176,-1.25092 -1.61704,-1.21528 -0.37653,0.37961 1.30284,1.67522 2.12181,2.20801 2.12181,1.3803 z m -55.10091,-22.54329 c -0.99429,-0.20207 -1.74528,-1.26075 -1.74528,-2.46008 0,-1.15785 -0.27829,-1.82455 -0.61841,-1.48157 -0.34016,0.34287 -0.33558,1.76007 0.01,3.1491 0.47187,1.89577 1.06127,2.35365 2.3637,1.8365 1.64468,-0.65317 1.64414,-0.7076 -0.01,-1.04395 z m 13.94146,1.19638 c -0.33138,-0.33419 -1.1916,-0.36987 -1.91151,-0.0796 -0.79557,0.32092 -0.55926,0.55937 0.60255,0.60758 1.05131,0.0458 1.64033,-0.19386 1.30896,-0.52821 z m 21.94063,-4.02271 c -0.33143,-0.33419 -1.19159,-0.36993 -1.91151,-0.0796 -0.79556,0.32093 -0.55926,0.55932 0.60255,0.60759 1.05132,0.0458 1.64034,-0.19391 1.30896,-0.52821 z m -12.59643,-2.96703 c -1.86566,-0.8165 -3.61375,-1.26107 -3.88464,-0.98789 -0.59555,0.60053 3.68667,2.41398 5.78085,2.44809 0.82276,0.0153 -0.0306,-0.6437 -1.89621,-1.4602 z m -22.90913,-1.20233 c 1.24052,-1.59505 1.20523,-1.63058 -0.37653,-0.37962 -0.9599,0.75918 -1.74528,1.55116 -1.74528,1.75997 0,0.82771 0.81897,0.29497 2.12181,-1.38019 z m 12.08975,-1.98457 c -1.78269,-0.22291 -4.6998,-0.22291 -6.48248,0 -1.78267,0.22303 -0.32411,0.40562 3.24123,0.40562 3.56535,0 5.02391,-0.18259 3.24125,-0.40562 z m -48.11982,220.58907 c 0,-0.20875 -0.78538,-1.00083 -1.74528,-1.75996 -1.58177,-1.25086 -1.61705,-1.21538 -0.37654,0.37962 1.30284,1.67516 2.12182,2.2079 2.12182,1.38019 z M 589.092,804.30119 c -0.31848,-0.80218 -0.55472,-0.56389 -0.60256,0.60764 -0.0437,1.06011 0.19225,1.65411 0.52378,1.31992 0.33158,-0.33419 0.36697,-1.20148 0.0786,-1.92756 z m 0,-19.10768 c -0.31848,-0.80218 -0.55472,-0.5639 -0.60256,0.60764 -0.0437,1.06016 0.19225,1.65411 0.52378,1.31997 0.33158,-0.33424 0.36697,-1.20154 0.0786,-1.92761 z M 536.55099,675.41737 c 0,-0.19081 -1.00974,-1.20907 -2.24391,-2.26275 l -2.24391,-1.91577 1.89984,2.26275 c 1.78541,2.12647 2.58798,2.72053 2.58798,1.91577 z m -112.9444,-45.60131 c -0.9599,-0.25308 -2.53066,-0.25308 -3.49056,0 -0.9599,0.25308 -0.17452,0.45973 1.74528,0.45973 1.91983,0 2.70518,-0.20712 1.74528,-0.45973 z M 478.97582,1022.06 c -0.67519,-0.2755 -2.02155,-0.2924 -2.99191,-0.036 -0.97036,0.2552 -0.41811,0.4807 1.22764,0.5011 1.64558,0.02 2.43946,-0.1883 1.76427,-0.4638 z m -70.82739,-3.0849 c -1.78268,-0.2229 -4.69979,-0.2229 -6.48248,0 -1.78268,0.223 -0.3241,0.4057 3.24124,0.4057 3.56535,0 5.02391,-0.1827 3.24124,-0.4057 z m -37.39882,-0.9713 c -0.9599,-0.2531 -2.53066,-0.2531 -3.49056,0 -0.9599,0.2531 -0.17452,0.4597 1.74528,0.4597 1.9198,0 2.70518,-0.2072 1.74528,-0.4597 z m -40.37175,-3.9891 c -0.67519,-0.2755 -2.02155,-0.2923 -2.99191,-0.036 -0.97034,0.2551 -0.41791,0.4806 1.22767,0.501 1.64552,0.02 2.43946,-0.1882 1.76424,-0.4638 z m -68.50905,-14.30399 c -0.5749,-0.93798 -4.56227,-2.2519 -4.56227,-1.50335 0,0.24233 1.00976,0.8504 2.24393,1.3506 2.92573,1.18584 2.95261,1.18764 2.31834,0.15254 z m -8.82158,-76.15402 c -0.33141,-0.33424 -1.19157,-0.36998 -1.9115,-0.0796 -0.79557,0.32092 -0.55926,0.55937 0.60254,0.60763 1.05131,0.0458 1.64036,-0.19386 1.30896,-0.52821 z m -2.72181,-12.96902 c 0,-3.04209 -0.33657,-5.5317 -0.74797,-5.53249 -0.4114,0 -0.59424,2.4883 -0.40634,5.53118 0.44085,7.13939 1.15433,7.14018 1.15433,0 z m 367.68831,-20.80469 c -0.31848,-0.80229 -0.55467,-0.56395 -0.60252,0.60759 -0.0437,1.0601 0.19222,1.65411 0.52375,1.31992 0.3316,-0.33419 0.36699,-1.2016 0.0786,-1.92751 z m -1.97055,-10.10779 c -0.23854,-1.25097 -0.44278,-0.46431 -0.45383,1.74817 -0.0131,2.21248 0.18393,3.23601 0.43382,2.27449 0.24945,-0.96146 0.25863,-2.77175 0.0218,-4.02266 z M 250.32542,878.347 c 0,-2.23827 -1.55046,-1.71259 -1.722,0.58396 -0.0836,1.11816 0.26976,1.77028 0.78506,1.44914 0.51532,-0.32098 0.93694,-1.23607 0.93694,-2.0331 z m 363.6783,-0.69485 c -0.27655,-0.69144 -0.503,-0.12549 -0.503,1.25707 0,1.38271 0.22629,1.94851 0.503,1.25707 0.27655,-0.69138 0.27655,-1.82276 0,-2.51414 z m 2.99193,-8.04533 c -0.27654,-0.69143 -0.50302,-0.12554 -0.50302,1.25707 0,1.38283 0.2263,1.94846 0.50302,1.25708 0.27653,-0.69139 0.27653,-1.82276 0,-2.51415 z M 247.21783,842.84896 c -0.0913,-2.09679 -0.21918,-2.23338 -0.60597,-0.64664 -0.26964,1.10626 -0.95425,2.58741 -1.52132,3.29148 -0.77701,0.96473 -0.62772,1.12401 0.60597,0.64659 0.99561,-0.38519 1.59169,-1.67485 1.52132,-3.29143 z m 370.80212,-5.92638 c -0.25078,-0.96793 -0.45615,-0.17607 -0.45615,1.75991 0,1.93593 0.20535,2.72791 0.45615,1.75992 0.25076,-0.96794 0.25076,-2.55189 0,-3.51983 z m 3.9928,-6.01486 c -0.25289,-0.97851 -0.47635,-0.42141 -0.4967,1.23792 -0.0217,1.65937 0.18654,2.45998 0.45977,1.77907 0.27306,-0.68081 0.28963,-2.03847 0.0353,-3.01699 z m -373.98811,-4.02266 c -0.25287,-0.97852 -0.47638,-0.42141 -0.49669,1.23791 -0.0205,1.65943 0.18654,2.45993 0.45973,1.77908 0.27319,-0.68086 0.28983,-2.03852 0.0371,-3.01699 z m 374.01137,-7.0588 c -0.22853,-1.52105 -0.4155,-0.27656 -0.4155,2.76554 0,3.04214 0.18697,4.28668 0.4155,2.76564 0.22846,-1.5211 0.22846,-4.01014 0,-5.53118 z m -0.0346,-5.46833 c -0.31852,-0.80229 -0.55471,-0.56395 -0.60259,0.60758 -0.0439,1.06016 0.19223,1.65417 0.52385,1.31992 0.33157,-0.33419 0.36694,-1.20154 0.0786,-1.9275 z m -2.99194,-9.05101 c -0.31846,-0.80229 -0.55466,-0.564 -0.60251,0.60759 -0.0437,1.06016 0.19223,1.65411 0.52378,1.31997 0.33163,-0.33419 0.367,-1.20159 0.0787,-1.92756 z m 1.99464,-10.05668 c -0.31851,-0.80229 -0.55471,-0.56395 -0.60258,0.60759 -0.0439,1.06016 0.19222,1.65411 0.52385,1.31992 0.33157,-0.33414 0.36694,-1.20159 0.0786,-1.92751 z m 1.99458,-12.06803 c -0.31851,-0.80224 -0.55464,-0.56395 -0.60257,0.60758 -0.0439,1.06016 0.19228,1.65411 0.52385,1.31998 0.33156,-0.3342 0.36693,-1.20154 0.0786,-1.92756 z M 248.0495,763.52268 c -0.22923,-1.52868 -0.4229,-0.51668 -0.43041,2.24896 -0.007,2.76554 0.18008,4.01629 0.41677,2.77933 0.23674,-1.23686 0.24286,-3.49961 0.0135,-5.02829 z m 377.9222,-26.66401 c -0.27659,-0.69139 -0.50307,-0.12554 -0.50307,1.25712 0,1.38277 0.2263,1.94846 0.50307,1.25707 0.27652,-0.69143 0.27652,-1.82281 0,-2.51419 z m 1.01807,-45.19216 c -0.31852,-0.80229 -0.55471,-0.56401 -0.60252,0.60758 -0.0439,1.06011 0.19222,1.65411 0.52378,1.31992 0.33163,-0.33419 0.36701,-1.20154 0.0787,-1.9275 z m 1.99458,-27.15306 c -0.31845,-0.80224 -0.55465,-0.56395 -0.60246,0.60758 -0.0439,1.06011 0.19216,1.65417 0.52373,1.31998 0.33162,-0.33425 0.367,-1.2016 0.0787,-1.92756 z M 252.00402,615.23572 c -0.31835,-0.80218 -0.55468,-0.5639 -0.60253,0.60764 -0.0433,1.06005 0.1924,1.65411 0.52381,1.31992 0.3314,-0.33419 0.36679,-1.20159 0.0787,-1.92756 z m 163.6242,-27.69701 c -2.05694,-0.21686 -5.42283,-0.21686 -7.47976,0 -2.05696,0.21681 -0.37403,0.39441 3.73986,0.39441 4.11387,0 5.79683,-0.1776 3.7399,-0.39441 z m 24.93254,-0.99336 c -1.50844,-0.2307 -3.97673,-0.2307 -5.48517,0 -1.50844,0.23055 -0.27435,0.41883 2.74256,0.41883 3.01688,0 4.25101,-0.18828 2.74261,-0.41883 z m -7.99921,-1.89861 c -0.3314,-0.33424 -1.19157,-0.36993 -1.91148,-0.0796 -0.79559,0.32098 -0.55926,0.55937 0.60253,0.6077 1.05131,0.0458 1.64036,-0.19392 1.30895,-0.52832 z m 24.93255,0 c -0.3316,-0.33424 -1.19157,-0.36993 -1.91151,-0.0796 -0.79559,0.32098 -0.55923,0.55937 0.60253,0.6077 1.05134,0.0458 1.64039,-0.19392 1.30898,-0.52832 z m 6.98111,-1.00573 c -0.33161,-0.33419 -1.19158,-0.36993 -1.91151,-0.0791 -0.79555,0.32093 -0.55924,0.55932 0.60252,0.60754 1.05134,0.0458 1.64038,-0.19387 1.30899,-0.52816 z m 166.50347,-1.59231 c -0.31845,-0.80219 -0.55471,-0.5639 -0.60252,0.60764 -0.0439,1.0601 0.19223,1.65411 0.52379,1.31992 0.33113,-0.3342 0.367,-1.2016 0.0786,-1.92756 z m -197.64837,0.16991 c 7.67924,-0.55369 16.43057,-1.45325 19.4474,-1.99899 3.0168,-0.54579 11.99254,-1.65311 19.94601,-2.46077 29.05408,-2.9504 34.59398,-3.70831 44.37994,-6.07155 5.48515,-1.32466 11.09494,-2.54746 12.46625,-2.71743 1.61272,-0.20002 2.59547,-1.02852 2.78263,-2.34623 0.24771,-1.74338 2.26143,-2.50177 13.96225,-5.25826 7.52008,-1.77159 18.83385,-3.92181 25.14179,-4.77826 27.42166,-3.72316 42.72882,-7.08312 48.48684,-10.64279 1.71033,-1.05726 3.83825,-1.92235 4.72874,-1.92235 1.17708,0 0.43119,-1.57852 -2.73249,-5.78262 -5.46035,-7.25593 -8.59638,-13.12697 -8.59638,-16.09341 0,-2.62049 -7.30191,-14.86016 -16.34719,-27.4017 -6.1348,-8.5061 -16.80188,-24.92029 -19.93333,-30.67287 -0.90329,-1.65935 -2.07687,-3.69579 -2.60799,-4.52549 -4.04346,-6.31677 -7.27751,-13.07282 -7.52123,-15.71241 -0.15946,-1.72786 -2.43845,-6.7059 -5.06419,-11.06233 -6.70243,-11.12016 -22.32641,-42.32294 -22.32641,-44.58826 0,-2.89899 -2.10045,-3.05209 -6.57215,-0.47899 -6.45558,3.71464 -16.34312,7.1307 -22.84824,7.89388 -3.29111,0.38614 -8.00336,1.33 -10.47169,2.09752 -2.46834,0.76753 -10.77083,2.43962 -18.45007,3.7158 -18.9782,3.15385 -41.35358,3.09767 -64.32596,-0.16142 -9.05052,-1.28401 -19.37259,-2.62543 -22.93794,-2.98093 -3.56535,-0.35551 -7.82881,-1.36981 -9.47436,-2.254 -1.64555,-0.8842 -5.68463,-2.13802 -8.97574,-2.78625 -3.29107,-0.64828 -8.22772,-2.02022 -10.97032,-3.04887 -7.98423,-2.99449 -10.00929,-3.21251 -11.75636,-1.26558 -6.91159,7.70223 -35.06821,62.65066 -34.91401,68.13559 0.0599,2.13112 -0.6028,4.01033 -1.79926,5.10216 -1.04175,0.95071 -1.89409,2.28183 -1.89409,2.95805 0,0.67622 -0.65093,1.77422 -1.44652,2.44007 -1.23307,1.03194 -4.70286,6.64047 -9.05761,14.64072 -3.7523,6.89343 -10.38865,17.9355 -13.89123,23.11317 -2.24501,3.31868 -6.46656,9.96118 -9.38126,14.76109 -2.91468,4.79988 -5.88801,8.95482 -6.60739,9.23321 -1.97884,0.7657 -5.67523,11.59261 -5.00632,14.66376 0.61845,2.83933 -1.28854,7.55591 -5.14525,12.72589 -1.27676,1.71165 -2.32141,3.40866 -2.32141,3.77127 0,0.36277 -0.92517,1.59226 -2.05593,2.73253 -1.13533,1.1448 -1.91682,3.04641 -1.74528,4.24674 0.52216,3.65347 7.80065,5.57982 25.48951,6.7462 8.64081,0.56979 19.52518,1.68574 24.18756,2.47993 4.66241,0.79423 14.08691,1.93471 20.94336,2.53446 6.85643,0.59964 15.60776,1.71148 19.44738,2.47082 8.58841,1.69833 64.8344,2.05836 85.76794,0.54895 z M 354.50305,578.25 c 0.29598,-2.08789 6.52289,-2.76759 6.52289,-0.71191 0,0.91251 -1.2673,1.61142 -3.37087,1.85898 -2.6001,0.30618 -3.32084,0.0458 -3.15202,-1.14707 z m 4.77762,-0.70138 c -0.68565,-0.27908 -1.80761,-0.27908 -2.49327,0 -0.68565,0.27913 -0.12467,0.50721 1.24663,0.50721 1.37129,0 1.93229,-0.22808 1.24664,-0.50721 z m 7.0642,0.16333 c 0,-0.90993 0.92344,-1.50852 2.32706,-1.50852 1.40359,0 2.32703,0.59859 2.32703,1.50852 0,0.90983 -0.92344,1.50847 -2.32703,1.50847 -1.40362,0 -2.32706,-0.59864 -2.32706,-1.50847 z m 13.6298,-1.00568 c 0,-0.82966 0.67317,-1.50852 1.49596,-1.50852 0.82276,0 1.49595,0.67886 1.49595,1.50852 0,0.82966 -0.67319,1.50847 -1.49595,1.50847 -0.82279,0 -1.49596,-0.67881 -1.49596,-1.50847 z m -5.17349,-1.18985 c 0.71991,-0.29029 1.5801,-0.25461 1.91148,0.0796 0.33143,0.3342 -0.25762,0.57196 -1.30896,0.52827 -1.16178,-0.0458 -1.39812,-0.28677 -0.60252,-0.60759 z m 96.65516,7.11912 c -0.33159,-0.33424 -1.19158,-0.36993 -1.91149,-0.0796 -0.79559,0.32087 -0.55929,0.55926 0.60253,0.60753 1.05129,0.0458 1.64033,-0.19386 1.30896,-0.52821 z m -160.04616,-2.06978 c -0.68565,-0.27908 -1.80761,-0.27908 -2.49327,0 -0.68562,0.27908 -0.12467,0.50716 1.24663,0.50716 1.37131,0 1.93229,-0.22808 1.24664,-0.50716 z m 186.74476,-1.62332 c 1.57348,-0.38977 1.43808,-0.519 -0.64129,-0.61101 -1.60316,-0.0709 -2.88203,0.53011 -3.26406,1.5341 -0.4734,1.24402 -0.31541,1.39456 0.64129,0.61106 0.69816,-0.5719 2.16702,-1.26223 3.26406,-1.53415 z m -191.7123,0.62401 c -0.67518,-0.2755 -2.02155,-0.2924 -2.99189,-0.0358 -0.97036,0.25508 -0.41792,0.4801 1.22765,0.50105 1.64555,0.0205 2.43946,-0.18828 1.76424,-0.46379 z m 208.89494,-3.9706 c -0.33115,-0.33419 -1.19157,-0.36994 -1.91149,-0.0791 -0.79559,0.32093 -0.55923,0.55937 0.60254,0.60759 1.05133,0.0458 1.64038,-0.19386 1.30895,-0.52816 z m 3.98924,-1.00568 c -0.33161,-0.33419 -1.19157,-0.36993 -1.9115,-0.0796 -0.7956,0.32093 -0.5593,0.55932 0.60252,0.60759 1.05134,0.0458 1.64038,-0.19392 1.30898,-0.52821 z m -263.01756,-1.84719 c 0,-1.06147 -1.91393,-1.50741 -2.4832,-0.57858 -0.34452,0.56206 0.0732,1.02205 0.92839,1.02205 0.85514,0 1.55481,-0.19955 1.55481,-0.44336 z m 297.9231,-8.20949 c -0.33159,-0.33419 -1.19157,-0.36993 -1.91148,-0.0796 -0.79559,0.32093 -0.55929,0.55932 0.60252,0.60759 1.05134,0.0458 1.64039,-0.19392 1.30896,-0.52821 z m 36.08984,-7.07639 c 0.2285,-0.19849 -1.00559,-0.36124 -2.74256,-0.36124 -1.73696,0 -3.15811,0.46125 -3.15811,1.02483 0,0.90194 4.70951,0.37246 5.90067,-0.66348 z m 24.2677,-3.72531 c 5.34276,-3.2269 6.04343,-4.12931 1.99458,-2.569 -1.50839,0.58132 -5.43525,1.65612 -8.72636,2.38829 -3.2911,0.73229 -4.97406,1.37677 -3.73989,1.43236 1.26234,0.0566 2.24391,0.74665 2.24391,1.5771 0,1.7578 1.47127,1.25197 8.22776,-2.82875 z m -13.48435,1.75069 c -0.33159,-0.33419 -1.19158,-0.36987 -1.91148,-0.0796 -0.7956,0.32092 -0.55929,0.55926 0.60252,0.60753 1.05134,0.0458 1.64036,-0.19386 1.30896,-0.52816 z m 23.20808,-7.43773 c 0.82275,-0.53621 1.04714,-0.97489 0.49861,-0.97489 -0.54853,0 -1.6705,0.43878 -2.49326,0.97489 -0.82276,0.53616 -1.04714,0.97483 -0.49867,0.97483 0.54858,0 1.6705,-0.43878 2.49332,-0.97483 z m 6.98109,-2.51415 c 1.03372,-1.25607 0.90514,-1.50851 -0.76852,-1.50851 -1.10552,0 -2.26831,0.67885 -2.58404,1.50851 -0.33509,0.88046 -0.013,1.50842 0.76851,1.50842 0.73834,0 1.90119,-0.67875 2.58405,-1.50842 z m -354.38331,-26 c 2.01703,-3.39985 6.06043,-9.72489 8.98533,-14.05567 2.92493,-4.33078 5.31143,-8.85624 5.30335,-10.05664 -0.0141,-2.08955 -0.0762,-2.07543 -1.45646,0.33168 -0.79298,1.38273 -2.01034,3.6455 -2.70525,5.0283 -1.06169,2.11259 -3.93181,6.70625 -9.28717,14.86417 -5.90535,8.99575 -7.04485,11.05174 -5.87411,10.59874 0.75184,-0.29086 3.01729,-3.31063 5.03431,-6.71051 z m 36.60854,-67.27586 c 0.84056,-2.07419 1.33589,-3.77126 1.10074,-3.77126 -0.72954,0 -8.44636,16.41146 -8.44636,17.96292 0,1.49022 4.56327,-7.32598 7.34562,-14.19166 z M 454.038,401.51489 c -1.2266,-0.2387 -3.47056,-0.24491 -4.98652,-0.0138 -1.51594,0.2312 -0.51236,0.42644 2.23025,0.43397 2.74255,0.007 3.98289,-0.18157 2.75627,-0.42022 z m -16.94885,-0.95742 c -0.67521,-0.27547 -2.02157,-0.29224 -2.99191,-0.0371 -0.97034,0.25498 -0.41808,0.48038 1.22765,0.50086 1.64552,0.0206 2.43945,-0.18813 1.76426,-0.46359 z m 37.62917,-3.89003 c 25.99949,-3.89415 45.68601,-8.81294 54.96196,-13.73255 l 5.59553,-2.96764 0.65568,-13.76249 c 0.91359,-19.17562 2.47722,-102.62919 2.55201,-136.20253 0.0708,-31.7435 0.75158,-29.68643 -8.62737,-26.06272 -2.62574,1.0145 -9.03755,2.38838 -14.24845,3.05306 -5.2109,0.66469 -12.39146,1.74727 -15.95684,2.40573 -4.23133,0.78147 -17.39169,1.15572 -37.89745,1.07772 -33.87914,-0.12889 -61.23328,-2.32135 -78.58366,-6.29857 -12.78532,-2.93078 -26.36469,-5.20115 -27.03912,-4.52075 -0.32442,0.32726 -0.66465,41.03283 -0.75609,90.45675 l -0.16622,89.86166 2.98022,0.66008 c 1.63912,0.36299 5.75299,1.9231 9.14193,3.46684 3.38895,1.54378 8.85444,3.35236 12.14554,4.0191 3.29108,0.66666 6.90952,1.80445 8.04097,2.52835 1.13144,0.72393 5.17052,1.62063 8.97571,1.99273 3.8052,0.37209 9.61126,1.15441 12.90237,1.73857 26.6438,4.72905 44.77856,5.36385 65.32328,2.28666 z M 354.24449,384.12076 c 0.72018,0 2.8475,0.44483 4.72734,0.9885 1.87986,0.54363 3.59313,0.8118 3.80725,0.59584 0.21412,-0.21591 -2.11225,-1.12591 -5.16978,-2.0222 -4.95418,-1.45228 -5.56676,-1.92752 -5.62955,-4.36713 -0.0652,-2.53406 -0.20159,-2.43855 -1.83524,1.28515 -0.97065,2.2125 -2.08822,5.38036 -2.48353,7.03969 l -0.71872,3.01699 2.99639,-3.26842 c 1.64804,-1.79764 3.58567,-3.26842 4.30584,-3.26842 z m 184.30113,-2.0113 c 0,-0.55315 -0.1979,-1.00566 -0.43981,-1.00566 -0.242,0 -0.71714,0.45255 -1.05612,1.00566 -0.33903,0.55311 -0.14113,1.00565 0.43976,1.00565 0.5809,0 1.05617,-0.45254 1.05617,-1.00565 z M 352.36061,355.1191 c -0.0209,-11.18503 -0.3236,-20.62453 -0.67279,-20.97666 -0.34921,-0.35215 -0.63837,0.45343 -0.64256,1.79011 -0.005,1.3367 -0.11644,10.91577 -0.24933,21.28686 -0.14374,11.21482 0.13202,18.73079 0.68044,18.54632 0.52574,-0.17685 0.90583,-9.05134 0.88424,-20.64663 z m 188.32757,10.39684 c 0.1931,-2.21247 -0.0983,-4.14104 -0.64661,-4.28567 -0.55938,-0.1475 -1.1077,2.28135 -1.24877,5.53119 -0.28307,6.52732 1.30893,5.48103 1.89538,-1.24552 z m 0.5333,-128.41119 c -0.31848,-0.80224 -0.55466,-0.56395 -0.60255,0.6076 -0.0437,1.06014 0.19225,1.65411 0.52383,1.31994 0.33158,-0.3342 0.36697,-1.20158 0.0786,-1.92754 z M 352.71069,223.96822 c -0.27668,-0.6914 -0.50303,-0.12572 -0.50303,1.25709 0,1.38279 0.22638,1.94848 0.50303,1.25708 0.27667,-0.6914 0.27667,-1.82277 0,-2.51417 z m 0.0306,-11.54604 c -0.25286,-0.97848 -0.47637,-0.42139 -0.49669,1.23795 -0.0205,1.65935 0.18654,2.45992 0.45974,1.77906 0.2732,-0.68087 0.28983,-2.03852 0.0372,-3.01701 z m 122.70418,-3.89515 c -0.33115,-0.3342 -1.19158,-0.36991 -1.91148,-0.0793 -0.7956,0.32103 -0.55929,0.55934 0.60252,0.60758 1.05134,0.0439 1.64039,-0.19403 1.30896,-0.52819 z m -31.37521,-1.05772 c -0.67525,-0.27547 -2.0216,-0.29227 -2.99194,-0.0373 -0.97034,0.25495 -0.41809,0.48037 1.22764,0.50088 1.64553,0.0204 2.43945,-0.18812 1.7643,-0.46358 z m 46.61981,-2.36544 c 1.07646,-0.58093 7.01109,-1.52243 13.18803,-2.09224 16.40043,-1.5129 30.35217,-5.20921 37.65938,-9.97733 1.3713,-0.8948 4.43598,-2.24798 6.81037,-3.00709 2.84186,-0.90852 5.6535,-2.91109 8.22773,-5.86014 5.64795,-6.4702 5.15638,-10.14583 -1.58008,-11.81452 -1.64248,-0.40685 -6.12784,-2.21906 -9.96743,-4.02709 -9.32095,-4.38916 -19.48525,-8.46855 -21.10038,-8.46855 -0.72001,0 -6.13116,-1.62684 -12.02475,-3.61522 -9.26997,-3.1275 -20.49588,-5.89151 -38.18193,-9.40106 -7.54484,-1.49715 -24.46396,-2.36092 -30.59781,-1.56209 l -5.80373,0.75584 5.48514,1.92578 c 3.01683,1.05918 11.32682,2.51908 18.4666,3.2442 7.13979,0.72513 14.32035,2.00195 15.95684,2.83738 1.63647,0.83544 5.21932,1.81399 7.96193,2.17454 2.74256,0.36058 6.78162,1.30733 8.97569,2.10395 2.19407,0.79663 5.4986,1.46827 7.34343,1.49255 5.43621,0.0715 20.24528,4.05006 22.89311,6.1503 1.34463,1.06655 2.90989,1.93917 3.47837,1.93917 0.5685,0 1.78757,0.68808 2.70912,1.52906 0.92154,0.84098 3.60662,2.09285 5.96681,2.78192 2.50674,0.73186 5.13197,2.38835 6.31292,3.98339 1.89524,2.55972 1.93119,3.02445 0.57475,7.42896 -1.62217,5.2672 -1.70048,5.32408 -11.38104,8.26441 -3.83962,1.16623 -9.89822,3.0125 -13.4636,4.10283 -3.56533,1.09031 -10.29713,2.26402 -14.95948,2.60824 -4.66241,0.3442 -12.96493,1.25685 -18.45008,2.02808 -9.83206,1.38241 -50.82535,1.37613 -54.40321,-0.008 -0.84265,-0.32608 -5.32731,-0.98887 -9.96596,-1.47292 -8.10331,-0.84558 -34.31204,-5.55009 -47.82116,-8.58398 -4.11959,-0.92519 -6.82331,-1.10453 -7.42988,-0.49288 -0.52447,0.52858 -1.76141,0.96128 -2.74873,0.96128 -0.98732,0 -1.79515,0.65111 -1.79515,1.44689 0,0.95836 1.59942,1.68092 4.7372,2.14008 2.60544,0.38124 7.65429,1.31332 11.21964,2.07124 21.46452,4.56294 27.33227,5.45065 45.37723,6.86505 25.71798,2.01582 25.61493,2.01078 47.64736,2.33157 11.70354,0.17042 19.45956,-0.12342 20.6828,-0.78357 z M 353.4779,199.8322 c 0.5073,-2.31937 1.1248,-2.76618 3.82714,-2.76934 l 3.22223,-0.004 -3.35371,-2.06178 c -1.84456,-1.13397 -3.54143,-1.87247 -3.77085,-1.64112 -0.22945,0.23134 -0.63154,2.85791 -0.89358,5.83679 -0.48156,5.47436 -0.13829,5.70086 0.96877,0.63921 z m 38.19427,2.66083 c -0.33141,-0.3342 -1.19157,-0.36991 -1.91151,-0.0793 -0.79557,0.32103 -0.55926,0.55933 0.60255,0.60758 1.05132,0.0439 1.64036,-0.19404 1.30896,-0.52819 z m 153.70507,-6.14451 c 3.46172,-2.91658 1.17654,-2.94363 -3.05563,-0.0362 -2.94194,2.02114 -3.13304,2.4269 -1.78956,3.80004 1.34955,1.37928 1.54,1.37928 1.85329,0 0.19222,-0.84551 1.5384,-2.53926 2.9919,-3.76388 z m -88.88047,2.12184 c -0.33114,-0.33415 -1.19157,-0.36991 -1.91148,-0.0793 -0.7956,0.32103 -0.55928,0.55933 0.60253,0.60758 1.05134,0.0439 1.64036,-0.19404 1.30895,-0.5282 z m 12.00004,-0.0834 c -0.95353,-0.25168 -2.74867,-0.26082 -3.98921,-0.0204 -1.24057,0.24057 -0.46043,0.4465 1.73364,0.45767 2.19407,0.0112 3.20907,-0.18567 2.25557,-0.43737 z m 10.46,0.025 c -0.68562,-0.27899 -1.80761,-0.27899 -2.49324,0 -0.68562,0.27899 -0.12449,0.50726 1.24663,0.50726 1.37131,0 1.93229,-0.22827 1.24661,-0.50726 z m 14.71023,-4.19745 c 13.55871,-1.35724 25.33189,-3.90513 36.70238,-7.94294 6.62347,-2.35209 7.25475,-2.81266 6.9811,-5.09324 -0.23766,-1.97926 -1.17945,-2.76755 -4.4726,-3.74302 -2.29441,-0.67963 -5.38424,-2.1975 -6.86627,-3.37303 -1.48201,-1.17552 -3.27516,-2.13732 -3.98477,-2.13732 -0.70962,0 -1.89818,-0.61307 -2.64124,-1.36237 -0.74309,-0.74931 -2.68248,-1.60499 -4.3098,-1.90155 -6.98967,-1.27374 -19.29867,-4.01976 -23.98971,-5.35186 -2.79079,-0.7925 -6.15668,-1.43866 -7.47975,-1.43592 -1.32308,0.003 -4.42514,-0.65658 -6.89348,-1.46514 -2.46834,-0.80855 -9.87328,-2.21791 -16.45549,-3.1319 -6.58218,-0.91398 -14.43594,-2.46644 -17.45277,-3.4499 -8.27844,-2.69869 -18.85354,-4.31759 -24.43387,-3.74046 -2.74258,0.28363 -8.57681,0.98627 -12.96493,1.56141 -4.38813,0.57514 -12.77974,1.54369 -18.64804,2.15236 -5.86832,0.60864 -12.8323,1.75425 -15.47559,2.54581 -8.82241,2.64195 -14.29703,11.07801 -12.62598,19.45589 0.43577,2.18472 1.80969,3.19997 7.68329,5.67746 3.93398,1.65936 8.72342,3.32318 10.64321,3.69738 1.91983,0.3742 6.85645,1.35894 10.97032,2.18829 4.11386,0.82935 11.29446,2.27417 15.95684,3.21072 24.34965,4.89121 62.00035,6.41779 89.75715,3.63933 z m 57.33777,-1.15903 c 0.34949,-0.57007 -0.0511,-0.73865 -0.93844,-0.39521 -1.72775,0.66855 -2.04383,1.38939 -0.6093,1.38939 0.51615,0 1.21265,-0.44736 1.54774,-0.99416 z m -160.32995,-2.63049 c -0.33137,-0.33415 -1.19157,-0.36991 -1.91148,-0.0793 -0.79559,0.32103 -0.55929,0.55933 0.60252,0.60758 1.05132,0.0438 1.64036,-0.19404 1.30896,-0.5282 z m -39.64687,-3.84246 c -1.34143,-1.35269 -2.33909,0.0173 -1.5406,2.11574 0.57294,1.5056 0.81247,1.55164 1.57762,0.30318 0.54417,-0.88784 0.52948,-1.84769 -0.0371,-2.41893 z m 22.69276,0.82546 c -0.33144,-0.33415 -1.1916,-0.36992 -1.91151,-0.0794 -0.79559,0.32104 -0.55927,0.55934 0.60253,0.60759 1.05133,0.0439 1.64035,-0.19404 1.30898,-0.5282 z m -11.4482,-2.06978 c -0.68565,-0.27899 -1.8076,-0.27899 -2.49326,0 -0.68565,0.27899 -0.12465,0.50726 1.24663,0.50726 1.37128,0 1.93226,-0.22827 1.24663,-0.50726 z m -14.21156,-0.6866 c 0,-0.19082 -1.00976,-1.20907 -2.24393,-2.26275 l -2.24393,-1.91579 1.89986,2.26275 c 1.78537,2.12643 2.588,2.72057 2.588,1.91579 z m 8.25757,-0.67891 c -2.66346,-1.08071 -3.74066,-4.58232 -3.75729,-12.2137 -0.01,-4.61061 -0.26403,-5.48648 -1.33195,-4.59278 -2.12976,1.78236 -4.84136,8.1089 -4.41032,10.28985 0.56865,2.87724 6.28237,7.49495 9.2204,7.45171 2.4555,-0.0362 2.45971,-0.0505 0.27916,-0.93508 z m 184.90292,-4.19102 c -0.31848,-0.80225 -0.55466,-0.56396 -0.60255,0.60759 -0.0437,1.06013 0.19225,1.65411 0.52383,1.31994 0.33158,-0.3342 0.36697,-1.20157 0.0786,-1.92753 z m -185.4981,-3.01701 c -0.31836,-0.80225 -0.55469,-0.56396 -0.60253,0.6076 -0.0433,1.06013 0.1924,1.65411 0.5238,1.31993 0.33141,-0.33419 0.36679,-1.20156 0.0787,-1.92753 z m 5.86393,-18.16486 2.92915,-3.26842 -3.24121,2.95373 c -3.02129,2.7533 -3.69965,3.5831 -2.92918,3.5831 0.17165,0 1.6302,-1.47079 3.24124,-3.26841 z m 111.3857,-3.43162 c -0.68563,-0.279 -1.80761,-0.279 -2.49323,0 -0.68563,0.27898 -0.12452,0.50726 1.2466,0.50726 1.3713,0 1.93231,-0.22828 1.24663,-0.50726 z m -77.04153,-7.48307 c 10.74459,-1.05528 18.02954,-2.80951 11.9676,-2.88183 -6.54621,-0.0781 -24.10211,2.16182 -27.5478,3.51473 l -3.8672,1.51842 3.98921,-0.51245 c 2.19407,-0.28185 9.15026,-1.01934 15.45819,-1.63887 z m 55.61744,-5.64316 c -1.4986,-0.22944 -4.19132,-0.23409 -5.98381,-0.0102 -1.79253,0.22384 -0.5664,0.41155 2.72471,0.41721 3.29108,0.006 4.75766,-0.17746 3.2591,-0.40695 z"
     id="path3787"
     inkscape:connector-curvature="0" />
  <path
     style="fill:#c8b7b7;stroke-width:2.40150094"
     d="m 391.03368,954.25236 c -18.09784,-3.54949 -53.60235,-16.78998 -63.74715,-23.77287 -24.58627,-16.92323 -45.93937,-46.87297 -55.66575,-78.07647 -5.79019,-18.57569 -6.74277,-25.66392 -6.77744,-50.43152 -0.033,-23.57003 0.98383,-32.098 5.58365,-46.82927 9.79794,-31.37867 20.81343,-49.49047 44.68329,-73.46879 23.08015,-23.18501 42.93998,-36.06276 66.00102,-42.79715 18.73695,-5.47166 57.04711,-5.03369 80.31881,0.9182 43.7306,11.18441 85.71522,42.99701 104.56703,79.23261 18.48906,35.53828 24.23678,77.16609 15.57611,112.80973 -11.27495,46.40296 -42.75541,85.80669 -85.3501,106.83176 -12.36926,6.10555 -30.05429,12.67944 -39.30007,14.60866 -18.32395,3.82346 -49.0481,4.27816 -65.8894,0.97511 z m 2.45665,-99.62349 c 19.37581,-16.43878 22.42847,-20.21659 31.75882,-39.30319 l 10.32255,-21.11628 12.37884,24.34746 c 15.19501,29.88647 25.16988,41.85751 41.09155,49.31482 10.22641,4.7898 13.25269,5.28497 18.28542,2.9919 10.11884,-4.61045 7.96306,-13.01959 -5.88896,-22.97128 -16.078,-11.5509 -32.46418,-32.52242 -42.44787,-54.32605 -22.06691,-48.19249 -31.01985,-60.73345 -54.82514,-76.7971 -21.64663,-14.60699 -45.03742,-21.9789 -55.13711,-17.37718 -13.13191,5.9833 -9.55756,17.25572 5.52453,17.42269 11.20806,0.12409 32.60703,9.36742 44.19972,19.09218 5.17848,4.34407 12.70706,14.82892 17.54275,24.43132 l 8.47113,16.8214 -7.1384,15.2544 c -5.3584,11.45065 -12.85266,20.93162 -30.0547,38.02217 -21.91262,21.77059 -27.68332,30.84981 -24.64329,38.77203 2.58631,6.7398 9.08805,3.63802 30.56016,-14.57929 z"
     id="path3846"
     inkscape:connector-curvature="0" />
  <path
     style="fill:#241c1c;stroke-width:2.40150094"
     d="m 489.10399,858.42849 c -13.96931,-7.38335 -21.63625,-18.30452 -46.54108,-66.29546 -12.95702,-24.96783 -26.23177,-48.90824 -29.49944,-53.20093 -3.26768,-4.29268 -4.74809,-7.80488 -3.28981,-7.80488 5.40625,0 24.64473,28.3328 34.24391,50.43152 14.53554,33.46293 24.26704,48.27202 43.30181,65.8953 17.14603,15.8746 17.71871,19.39625 1.78461,10.97445 z"
     id="path3848"
     inkscape:connector-curvature="0" />
  <path
     style="fill:#ffff00;stroke-width:2.40150094"
     d="m 426.45446,1019.1585 c -0.42061,-1.2618 -20.02614,-3.3461 -43.56784,-4.6318 -23.54169,-1.2856 -46.7731,-3.3984 -51.62534,-4.6951 -4.85224,-1.2966 -10.98361,-2.2418 -13.62526,-2.1003 -4.4042,0.2358 -23.99746,-4.2324 -48.03002,-10.95333 L 260,994.09158 259.83066,968.87582 c -0.0931,-13.86867 -1.6695,-34.94184 -3.50303,-46.82927 -2.45998,-15.94892 -3.28665,-47.10422 -3.15419,-118.8743 0.18157,-98.37831 2.44871,-210.74756 4.43762,-219.94738 1.0191,-4.71393 1.98247,-4.88937 16.14536,-2.94036 8.28387,1.13998 26.94902,3.09527 41.4781,4.3451 14.52908,1.24983 36.14259,3.48102 48.03002,4.9582 33.22559,4.12874 82.18059,3.02009 114.07129,-2.5833 15.1895,-2.66889 36.80301,-6.42305 48.03002,-8.34258 46.87161,-8.01384 79.82313,-15.84952 91.46854,-21.7507 l 12.3959,-6.28148 -1.67145,36.81534 c -0.91929,20.24844 -2.10573,50.32379 -2.63651,66.8341 -0.96607,30.05004 -5.56127,121.64094 -7.34962,146.49156 -2.43412,33.8243 -5.72693,71.91737 -7.13537,82.54576 -0.91811,6.92836 -0.57408,12.3161 0.84339,13.20826 1.38405,0.87112 2.77704,19.30487 3.30192,43.69528 l 0.90788,42.18851 -28.85221,9.77342 c -36.42843,12.33982 -43.8989,14.47512 -66.07547,18.88672 -36.82911,7.3265 -92.76016,12.1345 -94.10839,8.0898 z m 24.46486,-57.64331 c 37.91332,-6.12385 67.75048,-22.28412 96.90969,-52.48783 12.38392,-12.82752 18.55078,-21.89004 26.5827,-39.06478 13.65068,-29.18931 16.75368,-43.19572 16.65909,-75.19558 -0.11395,-38.5477 -8.999,-67.49714 -29.83051,-97.19449 -17.66818,-25.18772 -52.56883,-50.33433 -84.88014,-61.15785 -16.41684,-5.49924 -64.30761,-13.24187 -68.66784,-11.10171 -1.98124,0.97246 -10.08631,3.11676 -18.01126,4.7651 -44.77326,9.31257 -91.73954,47.57548 -113.71216,92.64004 -13.75132,28.20316 -18.2079,47.58253 -17.94942,78.05266 0.38847,45.79175 12.9258,82.12588 37.83652,109.65314 13.7928,15.24153 46.15225,40.88396 48.55781,38.4784 0.74986,-0.74986 6.91906,0.84341 13.70932,3.54061 27.54911,10.94299 60.97985,14.21136 92.7962,9.07229 z"
     id="path3860"
     inkscape:connector-curvature="0" />
  <path
     style="fill:#00ffff;stroke-width:2.40150094"
     d="m 320.03752,577.26462 c -18.49155,-2.40609 -37.06285,-4.4336 -41.26955,-4.50558 -4.2067,-0.072 -10.47066,-1.20384 -13.9199,-2.51525 l -6.27137,-2.38436 6.11503,-10.4345 c 3.36326,-5.73898 6.11502,-13.16568 6.11502,-16.50378 0,-3.3381 2.34801,-9.05428 5.2178,-12.70263 7.07669,-8.99655 42.81222,-68.37371 42.81222,-71.13559 0,-3.10517 26.05859,-54.82099 31.50181,-62.51841 l 4.49486,-6.35633 15.02231,4.80724 c 18.71201,5.98798 57.14221,11.38693 81.54204,11.45562 20.83853,0.0587 65.28219,-7.78005 77.70857,-13.70578 4.51367,-2.15242 8.49043,-3.44964 8.83721,-2.88271 0.3468,0.56693 6.42783,12.91821 13.51341,27.44729 22.79921,46.7501 24.60175,50.0237 42.31524,76.84803 9.59429,14.52908 18.26207,29.1182 19.26175,32.42026 0.99965,3.30207 3.79943,8.81933 6.22171,12.26058 4.37481,6.21512 4.3629,6.27562 -1.78677,9.07759 -3.40501,1.55143 -21.85771,5.51725 -41.00598,8.81292 -19.1483,3.29568 -39.28904,7.98299 -44.75721,10.41625 -13.83536,6.15654 -17.06098,6.76485 -64.82851,12.22588 -51.74324,5.91556 -100.72772,5.87328 -146.83969,-0.12674 z m 42.02627,0.16654 c 0,-1.32082 -1.55723,-2.4015 -3.46052,-2.4015 -1.90329,0 -4.12842,1.08068 -4.94473,2.4015 -0.81632,1.32083 0.74092,2.40151 3.46052,2.40151 2.7196,0 4.94473,-1.08068 4.94473,-2.40151 z m 9.606,0 c 0,-1.32082 -1.01689,-2.4015 -2.25977,-2.4015 -1.24287,0 -2.92766,1.08068 -3.74398,2.4015 -0.81631,1.32083 0.20057,2.40151 2.25977,2.40151 2.05919,0 3.74398,-1.08068 3.74398,-2.40151 z m 12.00751,0 c 0,-1.32082 -1.08068,-2.4015 -2.4015,-2.4015 -1.32083,0 -2.4015,1.08068 -2.4015,2.4015 0,1.32083 1.08067,2.40151 2.4015,2.40151 1.32082,0 2.4015,-1.08068 2.4015,-2.40151 z"
     id="path3862"
     inkscape:connector-curvature="0" />
  <path
     style="fill:#ffe6d5;stroke-width:2.40150094"
     d="m 426.78946,1018.4802 c -0.72358,-0.7721 -22.02409,-3.0804 -47.33446,-5.1296 -48.25165,-3.9066 -75.40085,-7.9344 -101.44374,-15.05013 l -15.60976,-4.26506 -1.45114,-25.18767 c -0.79813,-13.85322 -2.83833,-40.85748 -4.53379,-60.00945 -2.30508,-26.03829 -2.70434,-69.05475 -1.58285,-170.53744 0.82489,-74.64363 2.21759,-140.9526 3.0949,-147.35327 l 1.59511,-11.63758 11.04489,1.43263 c 109.07482,14.14813 170.9342,14.27608 246.39198,0.50965 53.96482,-9.84528 91.58542,-18.8153 102.42824,-24.42234 4.00753,-2.07237 7.63445,-3.41809 8.05985,-2.99049 2.16375,2.17499 -9.11603,227.82208 -14.5871,291.80861 -2.65128,31.00784 -2.92599,46.53957 -1.10438,62.43902 1.33362,11.64017 2.43363,33.1288 2.44449,47.75248 l 0.0192,26.5885 -39.02439,12.44804 c -21.46342,6.8464 -51.9925,14.6383 -67.8424,17.3153 -29.57977,4.9959 -78.21867,8.7926 -80.56514,6.2888 z m 34.46255,-58.20836 c 44.99415,-9.89447 89.66322,-44.06115 110.52117,-84.53593 16.44252,-31.90668 19.54166,-44.65457 19.39248,-79.76816 -0.14215,-33.45889 -3.94838,-51.81073 -15.62823,-75.3516 -14.54072,-29.307 -32.33241,-48.29179 -63.27373,-67.51683 -21.01676,-13.05852 -45.8348,-21.46924 -76.72725,-26.00252 -23.18357,-3.40205 -24.33628,-3.34408 -45.35611,2.2812 -61.49752,16.45782 -107.78747,61.46002 -126.89276,123.36273 -4.6542,15.08 -5.51232,22.8967 -5.27276,48.03002 0.58073,60.92781 19.88259,100.66922 66.27838,136.4633 12.26844,9.46504 38.009,19.47812 62.52888,24.32377 17.26293,3.41152 56.12159,2.74014 74.42993,-1.28598 z"
     id="path3864"
     inkscape:connector-curvature="0" />
  <path
     style="fill:#ffe6d5;stroke-width:2.40150094"
     d="m 303.28025,574.66741 c -21.10393,-2.51594 -39.2928,-5.49645 -40.41971,-6.62336 -1.13092,-1.13091 0.0375,-6.21192 2.60787,-11.34029 2.56124,-5.11025 5.34685,-12.16671 6.19025,-15.68103 0.8434,-3.51432 9.31439,-18.64378 18.82443,-33.62101 9.51004,-14.97724 26.75484,-46.23982 38.32179,-69.4724 11.56695,-23.23258 22.62119,-43.56094 24.56498,-45.17415 2.80391,-2.32703 6.17617,-2.13785 16.32043,0.91557 45.96411,13.83518 104.08009,14.07822 150.71238,0.63026 10.05413,-2.89943 18.18412,-4.15137 18.61356,-2.8663 3.8253,11.44697 34.86503,70.78023 47.84774,91.46214 14.27608,22.74233 34.56192,57.87602 34.56192,59.8589 0,1.62059 -17.57923,6.02073 -43.22702,10.81985 -15.18949,2.84221 -35.87595,7.76161 -45.96986,10.93202 -25.19081,7.91217 -60.80044,12.7387 -107.35178,14.55045 -32.28324,1.25645 -39.66896,0.92793 -41.60872,-1.85077 -1.81123,-2.5946 -2.64095,-2.68195 -3.57642,-0.3765 -1.44632,3.56447 -8.0223,4.0566 -8.0223,0.60037 0,-3.4566 -6.5773,-2.96394 -8.01553,0.60038 -0.96903,2.4015 -1.2492,2.4015 -1.40088,0 -0.2234,-3.53715 -9.79559,-4.12384 -9.79559,-0.60038 0,2.97764 -1.92608,2.8694 -49.17754,-2.76375 z"
     id="path3866"
     inkscape:connector-curvature="0" />
  <path
     style="fill:#00ffff;stroke-width:2.40150094"
     d="m 411.20336,393.90039 c -10.61676,-1.74974 -27.09706,-5.69152 -36.62289,-8.75951 l -17.31968,-5.57818 v -89.84393 -89.84394 l 5.40338,1.35004 c 37.77472,9.43805 109.12219,13.44487 143.48968,8.05827 12.54784,-1.96669 24.70544,-4.34624 27.01688,-5.28789 3.89838,-1.58815 4.20263,1.06019 4.20263,36.58164 0,21.06156 -0.70963,61.08 -1.57696,88.92988 l -1.57696,50.63614 -10.00666,3.82158 c -29.18056,11.14416 -79.06574,15.53011 -113.00942,9.9359 z"
     id="path3868"
     inkscape:connector-curvature="0" />
  <path
     style="fill:#00ffff;stroke-width:2.40150094"
     d="m 392.54462,578.29348 c -0.91098,-0.91098 -19.21876,-1.88967 -40.68396,-2.17488 -34.24655,-0.45504 -84.08173,-5.71777 -87.6165,-9.25253 -2.45656,-2.45656 12.13481,-34.40904 26.97865,-59.07843 8.34493,-13.86867 25.0731,-44.12758 37.17372,-67.24203 12.10061,-23.11445 23.54092,-43.60428 25.4229,-45.53296 2.99927,-3.0737 5.27632,-3.01975 18.44095,0.43691 39.51165,10.37465 98.46815,11.64666 135.09422,2.9147 29.3864,-7.00595 31.58924,-7.05039 33.26443,-0.67102 1.9568,7.45184 31.39855,61.70597 57.48658,105.93408 11.50533,19.50544 20.91878,36.44829 20.91878,37.65078 0,1.20249 -10.53659,4.51173 -23.41463,7.35386 -12.87805,2.84214 -38.00376,8.77482 -55.8349,13.18372 -37.69024,9.31924 -57.29025,12.489 -88.85554,14.36991 -12.54784,0.7477 -30.44268,1.90053 -39.76632,2.56183 -9.32364,0.66131 -17.69741,0.45704 -18.60838,-0.45394 z"
     id="path3870"
     inkscape:connector-curvature="0" />
  <path
     style="fill:#00ffff;stroke-width:2.40150094"
     d="m 429.01171,1018.2127 c -0.62784,-0.6278 -18.91983,-2.8137 -40.64886,-4.8576 -21.72902,-2.0438 -48.15272,-4.8431 -58.71932,-6.2207 -21.8271,-2.8457 -61.52078,-11.52599 -64.26593,-14.05378 -1.0048,-0.92525 -3.37953,-23.77047 -5.27717,-50.76718 -3.76757,-53.599 -6.20592,-147.09361 -3.53488,-135.53894 0.91599,3.96248 1.79329,11.57034 1.94957,16.90633 1.33564,45.60618 37.47235,100.98775 79.99603,122.5985 47.7754,24.2797 117.80221,24.07586 162.65487,-0.47348 40.20992,-22.0082 69.61349,-56.60019 84.49672,-99.40658 4.56595,-13.13232 5.44427,-20.75519 5.53423,-48.03002 0.12512,-37.94291 -2.59203,-51.82263 -15.28365,-78.07172 -20.77923,-42.97608 -63.24684,-75.72579 -115.38799,-88.98363 -30.33274,-7.71265 -46.23723,-8.51621 -66.41635,-3.35562 -36.55663,9.34897 -68.55468,28.46078 -93.21573,55.67594 -16.11189,17.78057 -35.72662,55.47639 -40.95745,78.71252 -3.24207,14.40177 -3.4481,8.11847 -2.66235,-81.19389 0.46841,-53.242 1.81384,-97.65183 2.98985,-98.6885 1.17601,-1.03667 18.34833,0.0858 38.16072,2.49445 55.58061,6.75701 131.97436,8.32392 172.90806,3.54649 48.2767,-5.63443 130.11544,-22.73268 151.0797,-31.56449 4.45562,-1.87705 4.54059,-0.62046 2.94167,43.50013 -2.27792,62.85729 -8.08213,170.07926 -12.46939,230.34858 -3.0658,42.11611 -3.20537,58.47631 -0.8465,99.22183 1.63292,28.20587 1.92956,49.63504 0.70309,50.79256 -7.22614,6.81998 -95.61795,29.6487 -129.40106,33.4201 -34.50422,3.8519 -53.09946,5.2171 -54.32788,3.9887 z"
     id="path3872"
     inkscape:connector-curvature="0" />
</svg>
